<?xml version="1.0" standalone="no"?>
<!DOCTYPE svg PUBLIC "-//W3C//DTD SVG 1.1//EN" 
  "http://www.w3.org/Graphics/SVG/1.1/DTD/svg11.dtd">
<svg width="2048" height="2048" viewBox="0 0 2048 2048"
     xmlns="http://www.w3.org/2000/svg" version="1.1">
<desc>intersecting street.blend, (Blender 3.3.1)</desc>
<polygon stroke="black" stroke-width="1" fill="rgb(204, 204, 204)" fill-opacity="0.25" points="1838.019,2047.367 1837.835,2016.801 1835.436,2016.816 1835.621,2047.381 " />
<polygon stroke="black" stroke-width="1" fill="rgb(204, 204, 204)" fill-opacity="0.25" points="1712.689,284.402 1688.885,284.402 1688.885,308.206 1712.689,308.206 " />
<polygon stroke="black" stroke-width="1" fill="rgb(204, 204, 204)" fill-opacity="0.25" points="716.524,1408.715 677.505,1369.640 638.429,1408.659 677.449,1447.734 " />
<polygon stroke="black" stroke-width="1" fill="rgb(204, 204, 204)" fill-opacity="0.25" points="677.449,1447.734 638.429,1408.659 599.354,1447.678 638.373,1486.754 " />
<polygon stroke="black" stroke-width="1" fill="rgb(204, 204, 204)" fill-opacity="0.25" points="1835.436,2016.816 1837.835,2016.801 1837.653,1986.625 1835.254,1986.640 " />
<polygon stroke="black" stroke-width="1" fill="rgb(204, 204, 204)" fill-opacity="0.25" points="1688.885,308.206 1688.885,284.402 1665.081,284.402 1665.081,308.206 " />
<polygon stroke="black" stroke-width="1" fill="rgb(204, 204, 204)" fill-opacity="0.25" points="1712.689,308.206 1688.885,308.206 1688.885,332.010 1712.689,332.010 " />
<polygon stroke="black" stroke-width="1" fill="rgb(204, 204, 204)" fill-opacity="0.25" points="1665.081,355.511 1665.081,332.010 1641.631,332.010 1641.631,355.511 " />
<polygon stroke="black" stroke-width="1" fill="rgb(204, 204, 204)" fill-opacity="0.25" points="1523.487,680.974 1522.183,679.037 1495.062,697.298 1496.367,699.235 " />
<polygon stroke="black" stroke-width="1" fill="rgb(204, 204, 204)" fill-opacity="0.25" points="1688.885,332.010 1688.885,308.206 1665.081,308.206 1665.081,332.010 " />
<polygon stroke="black" stroke-width="1" fill="rgb(204, 204, 204)" fill-opacity="0.25" points="716.524,1408.715 677.449,1447.734 716.468,1486.810 755.543,1447.791 " />
<polygon stroke="black" stroke-width="1" fill="rgb(204, 204, 204)" fill-opacity="0.25" points="638.373,1486.754 599.354,1447.678 560.776,1486.200 599.795,1525.276 " />
<polygon stroke="black" stroke-width="1" fill="rgb(204, 204, 204)" fill-opacity="0.25" points="0.619,0.650 0.634,23.039 23.023,23.023 23.007,0.635 " />
<polygon stroke="black" stroke-width="1" fill="rgb(204, 204, 204)" fill-opacity="0.25" points="1837.228,1040.810 1837.043,1010.244 1834.645,1010.259 1834.829,1040.824 " />
<polygon stroke="black" stroke-width="1" fill="rgb(204, 204, 204)" fill-opacity="0.25" points="1688.885,355.511 1665.081,355.511 1665.081,379.315 1688.885,379.315 " />
<polygon stroke="black" stroke-width="1" fill="rgb(204, 204, 204)" fill-opacity="0.25" points="1688.885,332.010 1665.081,332.010 1665.081,355.511 1688.885,355.511 " />
<polygon stroke="black" stroke-width="1" fill="rgb(204, 204, 204)" fill-opacity="0.25" points="46.489,46.508 23.039,46.524 23.055,70.328 46.505,70.312 " />
<polygon stroke="black" stroke-width="1" fill="rgb(204, 204, 204)" fill-opacity="0.25" points="94.114,94.154 94.113,332.195 332.154,332.313 332.154,94.273 " />
<polygon stroke="black" stroke-width="1" fill="rgb(204, 204, 204)" fill-opacity="0.25" points="599.795,1525.276 560.776,1486.200 521.700,1525.219 560.720,1564.295 " />
<polygon stroke="black" stroke-width="1" fill="rgb(204, 204, 204)" fill-opacity="0.25" points="1837.228,1040.810 1834.829,1040.824 1835.010,1070.935 1837.409,1070.921 " />
<polygon stroke="black" stroke-width="1" fill="rgb(204, 204, 204)" fill-opacity="0.25" points="23.023,23.023 0.634,23.039 0.650,46.540 23.039,46.524 " />
<polygon stroke="black" stroke-width="1" fill="rgb(204, 204, 204)" fill-opacity="0.25" points="755.543,1447.791 716.468,1486.810 754.907,1525.305 794.563,1486.867 " />
<polygon stroke="black" stroke-width="1" fill="rgb(204, 204, 204)" fill-opacity="0.25" points="1712.689,332.010 1688.885,332.010 1688.885,355.511 1712.689,355.511 " />
<polygon stroke="black" stroke-width="1" fill="rgb(204, 204, 204)" fill-opacity="0.25" points="46.458,0.619 46.473,23.007 70.277,23.026 70.262,0.638 " />
<polygon stroke="black" stroke-width="1" fill="rgb(204, 204, 204)" fill-opacity="0.25" points="1521.857,1308.777 1523.141,1306.827 1495.849,1288.825 1494.566,1290.776 " />
<polygon stroke="black" stroke-width="1" fill="rgb(204, 204, 204)" fill-opacity="0.25" points="1641.631,308.206 1641.277,284.402 1617.473,284.402 1617.827,308.241 " />
<polygon stroke="black" stroke-width="1" fill="rgb(204, 204, 204)" fill-opacity="0.25" points="1837.409,1070.921 1835.010,1070.935 1835.195,1101.501 1837.594,1101.487 " />
<polygon stroke="black" stroke-width="1" fill="rgb(204, 204, 204)" fill-opacity="0.25" points="1641.631,379.315 1641.631,355.511 1617.827,355.546 1617.827,379.350 " />
<polygon stroke="black" stroke-width="1" fill="rgb(204, 204, 204)" fill-opacity="0.25" points="23.007,0.635 23.023,23.023 46.473,23.007 46.458,0.619 " />
<polygon stroke="black" stroke-width="1" fill="rgb(204, 204, 204)" fill-opacity="0.25" points="1665.081,308.206 1665.081,284.402 1641.277,284.402 1641.631,308.206 " />
<polygon stroke="black" stroke-width="1" fill="rgb(204, 204, 204)" fill-opacity="0.25" points="23.023,23.023 23.039,46.524 46.489,46.508 46.473,23.007 " />
<polygon stroke="black" stroke-width="1" fill="rgb(204, 204, 204)" fill-opacity="0.25" points="1665.081,332.010 1665.081,308.206 1641.631,308.206 1641.631,332.010 " />
<polygon stroke="black" stroke-width="1" fill="rgb(204, 204, 204)" fill-opacity="0.25" points="1665.081,355.511 1641.631,355.511 1641.631,379.315 1665.081,379.315 " />
<polygon stroke="black" stroke-width="1" fill="rgb(204, 204, 204)" fill-opacity="0.25" points="1550.262,662.947 1575.770,645.772 1576.078,642.749 1548.958,661.010 " />
<polygon stroke="black" stroke-width="1" fill="rgb(204, 204, 204)" fill-opacity="0.25" points="1575.738,1341.427 1550.048,1324.527 1548.765,1326.478 1576.078,1344.446 " />
<polygon stroke="black" stroke-width="1" fill="rgb(204, 204, 204)" fill-opacity="0.25" points="1550.048,1324.527 1523.141,1306.827 1521.857,1308.777 1548.765,1326.478 " />
<polygon stroke="black" stroke-width="1" fill="rgb(204, 204, 204)" fill-opacity="0.25" points="94.114,70.350 70.310,70.331 70.309,94.135 94.114,94.154 " />
<polygon stroke="black" stroke-width="1" fill="rgb(204, 204, 204)" fill-opacity="0.25" points="1523.487,680.974 1550.262,662.947 1548.958,661.010 1522.183,679.037 " />
<polygon stroke="black" stroke-width="1" fill="rgb(204, 204, 204)" fill-opacity="0.25" points="794.563,1486.867 754.907,1525.305 793.868,1564.438 833.582,1525.942 " />
<polygon stroke="black" stroke-width="1" fill="rgb(204, 204, 204)" fill-opacity="0.25" points="1641.631,355.511 1641.631,332.010 1617.827,332.045 1617.827,355.546 " />
<polygon stroke="black" stroke-width="1" fill="rgb(204, 204, 204)" fill-opacity="0.25" points="560.720,1564.295 521.700,1525.219 482.625,1564.238 521.617,1603.287 " />
<polygon stroke="black" stroke-width="1" fill="rgb(204, 204, 204)" fill-opacity="0.25" points="70.310,70.331 46.505,70.312 46.505,94.116 70.309,94.135 " />
<polygon stroke="black" stroke-width="1" fill="rgb(204, 204, 204)" fill-opacity="0.25" points="1712.689,379.315 1688.885,379.315 1688.901,403.119 1712.689,403.119 " />
<polygon stroke="black" stroke-width="1" fill="rgb(204, 204, 204)" fill-opacity="0.25" points="1641.631,379.315 1617.827,379.350 1617.843,403.154 1641.647,403.119 " />
<polygon stroke="black" stroke-width="1" fill="rgb(204, 204, 204)" fill-opacity="0.25" points="1496.367,699.235 1495.062,697.298 1467.931,715.543 1469.236,717.480 " />
<polygon stroke="black" stroke-width="1" fill="rgb(204, 204, 204)" fill-opacity="0.25" points="1835.070,1956.074 1837.468,1956.060 1837.284,1925.495 1834.885,1925.509 " />
<polygon stroke="black" stroke-width="1" fill="rgb(204, 204, 204)" fill-opacity="0.25" points="1688.885,379.315 1665.081,379.315 1665.097,403.119 1688.901,403.119 " />
<polygon stroke="black" stroke-width="1" fill="rgb(204, 204, 204)" fill-opacity="0.25" points="23.039,46.524 0.650,46.540 0.667,70.344 23.055,70.328 " />
<polygon stroke="black" stroke-width="1" fill="rgb(204, 204, 204)" fill-opacity="0.25" points="1641.631,332.010 1641.631,308.206 1617.827,308.241 1617.827,332.045 " />
<polygon stroke="black" stroke-width="1" fill="rgb(204, 204, 204)" fill-opacity="0.25" points="1835.254,1986.640 1837.653,1986.625 1837.468,1956.060 1835.070,1956.074 " />
<polygon stroke="black" stroke-width="1" fill="rgb(204, 204, 204)" fill-opacity="0.25" points="1712.689,355.511 1688.885,355.511 1688.885,379.315 1712.689,379.315 " />
<polygon stroke="black" stroke-width="1" fill="rgb(204, 204, 204)" fill-opacity="0.25" points="1665.081,379.315 1641.631,379.315 1641.647,403.119 1665.097,403.119 " />
<polygon stroke="black" stroke-width="1" fill="rgb(204, 204, 204)" fill-opacity="0.25" points="70.262,0.638 70.277,23.026 94.081,23.046 94.066,0.657 " />
<polygon stroke="black" stroke-width="1" fill="rgb(204, 204, 204)" fill-opacity="0.25" points="833.582,1525.942 793.868,1564.438 832.829,1603.572 872.601,1565.018 " />
<polygon stroke="black" stroke-width="1" fill="rgb(204, 204, 204)" fill-opacity="0.25" points="1594.023,379.386 1594.023,355.582 1355.983,355.863 1355.983,379.667 " />
<polygon stroke="black" stroke-width="1" fill="rgb(204, 204, 204)" fill-opacity="0.25" points="1617.827,355.546 1617.827,332.045 1594.023,332.081 1594.023,355.582 " />
<polygon stroke="black" stroke-width="1" fill="rgb(204, 204, 204)" fill-opacity="0.25" points="1617.827,379.350 1617.827,355.546 1594.023,355.582 1594.023,379.386 " />
<polygon stroke="black" stroke-width="1" fill="rgb(204, 204, 204)" fill-opacity="0.25" points="23.055,70.328 0.667,70.344 0.667,94.148 23.055,94.132 " />
<polygon stroke="black" stroke-width="1" fill="rgb(204, 204, 204)" fill-opacity="0.25" points="1617.827,332.045 1617.827,308.241 1594.023,308.277 1594.023,332.081 " />
<polygon stroke="black" stroke-width="1" fill="rgb(204, 204, 204)" fill-opacity="0.25" points="70.293,46.527 70.310,70.331 94.114,70.350 94.097,46.546 " />
<polygon stroke="black" stroke-width="1" fill="rgb(204, 204, 204)" fill-opacity="0.25" points="1494.566,1290.776 1495.849,1288.825 1468.558,1270.823 1467.274,1272.774 " />
<polygon stroke="black" stroke-width="1" fill="rgb(204, 204, 204)" fill-opacity="0.25" points="46.473,23.007 46.489,46.508 70.293,46.527 70.277,23.026 " />
<polygon stroke="black" stroke-width="1" fill="rgb(204, 204, 204)" fill-opacity="0.25" points="46.489,46.508 46.505,70.312 70.310,70.331 70.293,46.527 " />
<polygon stroke="black" stroke-width="1" fill="rgb(204, 204, 204)" fill-opacity="0.25" points="1594.023,332.081 1594.023,308.277 1355.983,308.558 1355.983,332.362 " />
<polygon stroke="black" stroke-width="1" fill="rgb(204, 204, 204)" fill-opacity="0.25" points="1594.039,403.190 1594.023,379.386 1355.983,379.667 1355.999,403.471 " />
<polygon stroke="black" stroke-width="1" fill="rgb(204, 204, 204)" fill-opacity="0.25" points="94.097,46.546 94.114,70.350 332.154,70.469 332.137,46.665 " />
<polygon stroke="black" stroke-width="1" fill="rgb(204, 204, 204)" fill-opacity="0.25" points="1467.274,1272.774 1468.558,1270.823 1357.610,1196.029 1356.326,1197.980 " />
<polygon stroke="black" stroke-width="1" fill="rgb(204, 204, 204)" fill-opacity="0.25" points="1594.202,641.230 1594.039,403.190 1355.999,403.471 1356.162,641.511 " />
<polygon stroke="black" stroke-width="1" fill="rgb(204, 204, 204)" fill-opacity="0.25" points="1358.128,919.348 1356.834,919.355 1356.232,993.488 1357.526,993.481 " />
<polygon stroke="black" stroke-width="1" fill="rgb(204, 204, 204)" fill-opacity="0.25" points="1594.023,308.277 1593.669,284.402 1355.629,284.402 1355.983,308.558 " />
<polygon stroke="black" stroke-width="1" fill="rgb(204, 204, 204)" fill-opacity="0.25" points="1837.777,1132.052 1835.379,1132.066 1834.886,1269.508 1837.284,1269.493 " />
<polygon stroke="black" stroke-width="1" fill="rgb(204, 204, 204)" fill-opacity="0.25" points="94.081,23.046 94.097,46.546 332.137,46.665 332.121,23.164 " />
<polygon stroke="black" stroke-width="1" fill="rgb(204, 204, 204)" fill-opacity="0.25" points="1834.640,1666.261 1837.039,1666.246 1837.528,1528.805 1835.130,1528.820 " />
<polygon stroke="black" stroke-width="1" fill="rgb(204, 204, 204)" fill-opacity="0.25" points="94.066,0.657 94.081,23.046 332.121,23.164 332.106,0.776 " />
<polygon stroke="black" stroke-width="1" fill="rgb(204, 204, 204)" fill-opacity="0.25" points="70.277,23.026 70.293,46.527 94.097,46.546 94.081,23.046 " />
<polygon stroke="black" stroke-width="1" fill="rgb(204, 204, 204)" fill-opacity="0.25" points="1837.594,1101.487 1835.195,1101.501 1835.379,1132.066 1837.777,1132.052 " />
<polygon stroke="black" stroke-width="1" fill="rgb(204, 204, 204)" fill-opacity="0.25" points="1617.827,308.241 1617.473,284.402 1593.669,284.402 1594.023,308.277 " />
<polygon stroke="black" stroke-width="1" fill="rgb(204, 204, 204)" fill-opacity="0.25" points="46.505,94.116 23.055,94.132 23.055,332.173 46.505,332.157 " />
<polygon stroke="black" stroke-width="1" fill="rgb(204, 204, 204)" fill-opacity="0.25" points="1617.843,403.154 1594.039,403.190 1594.202,641.230 1618.006,641.195 " />
<polygon stroke="black" stroke-width="1" fill="rgb(204, 204, 204)" fill-opacity="0.25" points="94.114,70.350 94.114,94.154 332.154,94.273 332.154,70.469 " />
<polygon stroke="black" stroke-width="1" fill="rgb(204, 204, 204)" fill-opacity="0.25" points="521.617,1603.287 482.625,1564.238 91.869,1954.431 130.593,1993.212 " />
<polygon stroke="black" stroke-width="1" fill="rgb(204, 204, 204)" fill-opacity="0.25" points="1806.581,1928.894 1813.157,1928.894 1813.157,1690.855 1806.581,1690.855 " />
<polygon stroke="black" stroke-width="1" fill="rgb(204, 204, 204)" fill-opacity="0.25" points="70.309,94.135 46.505,94.116 46.505,332.157 70.309,332.176 " />
<polygon stroke="black" stroke-width="1" fill="rgb(204, 204, 204)" fill-opacity="0.25" points="1712.689,403.119 1688.901,403.119 1689.064,641.159 1712.689,641.159 " />
<polygon stroke="black" stroke-width="1" fill="rgb(204, 204, 204)" fill-opacity="0.25" points="872.601,1565.018 832.829,1603.572 1222.558,1994.790 1262.792,1955.774 " />
<polygon stroke="black" stroke-width="1" fill="rgb(204, 204, 204)" fill-opacity="0.25" points="1641.647,403.119 1617.843,403.154 1618.006,641.195 1641.810,641.159 " />
<polygon stroke="black" stroke-width="1" fill="rgb(204, 204, 204)" fill-opacity="0.25" points="1469.236,717.480 1467.931,715.543 1356.133,789.063 1357.437,791.000 " />
<polygon stroke="black" stroke-width="1" fill="rgb(204, 204, 204)" fill-opacity="0.25" points="1834.885,1925.509 1837.284,1925.495 1837.774,1788.053 1835.375,1788.068 " />
<polygon stroke="black" stroke-width="1" fill="rgb(204, 204, 204)" fill-opacity="0.25" points="1688.901,403.119 1665.097,403.119 1665.260,641.159 1689.064,641.159 " />
<polygon stroke="black" stroke-width="1" fill="rgb(204, 204, 204)" fill-opacity="0.25" points="1665.097,403.119 1641.647,403.119 1641.810,641.159 1665.260,641.159 " />
<polygon stroke="black" stroke-width="1" fill="rgb(204, 204, 204)" fill-opacity="0.25" points="1617.827,379.350 1594.023,379.386 1594.039,403.190 1617.843,403.154 " />
<polygon stroke="black" stroke-width="1" fill="rgb(204, 204, 204)" fill-opacity="0.25" points="46.505,70.312 23.055,70.328 23.055,94.132 46.505,94.116 " />
<polygon stroke="black" stroke-width="1" fill="rgb(204, 204, 204)" fill-opacity="0.25" points="1806.581,1976.502 1813.157,1976.502 1813.157,1952.698 1806.581,1952.698 " />
<polygon stroke="black" stroke-width="1" fill="rgb(204, 204, 204)" fill-opacity="0.25" points="1357.776,853.959 1356.482,853.966 1356.658,886.660 1357.952,886.654 " />
<polygon stroke="black" stroke-width="1" fill="rgb(204, 204, 204)" fill-opacity="0.25" points="1835.191,1757.502 1837.590,1757.488 1837.408,1727.377 1835.009,1727.391 " />
<polygon stroke="black" stroke-width="1" fill="rgb(204, 204, 204)" fill-opacity="0.25" points="1806.580,1999.952 1813.157,1999.952 1813.157,1976.502 1806.581,1976.502 " />
<polygon stroke="black" stroke-width="1" fill="rgb(204, 204, 204)" fill-opacity="0.25" points="1813.156,2023.757 1806.580,2023.757 1806.580,2047.381 1813.156,2047.381 " />
<polygon stroke="black" stroke-width="1" fill="rgb(204, 204, 204)" fill-opacity="0.25" points="1806.580,2023.757 1813.156,2023.757 1813.157,1999.952 1806.580,1999.952 " />
<polygon stroke="black" stroke-width="1" fill="rgb(204, 204, 204)" fill-opacity="0.25" points="1837.774,1788.053 1837.590,1757.488 1835.191,1757.502 1835.375,1788.068 " />
<polygon stroke="black" stroke-width="1" fill="rgb(204, 204, 204)" fill-opacity="0.25" points="1357.776,853.959 1357.603,821.750 1356.309,821.757 1356.482,853.966 " />
<polygon stroke="black" stroke-width="1" fill="rgb(204, 204, 204)" fill-opacity="0.25" points="1357.603,821.750 1357.437,791.000 1356.133,789.063 1356.309,821.757 " />
<polygon stroke="black" stroke-width="1" fill="rgb(204, 204, 204)" fill-opacity="0.25" points="1357.952,886.654 1356.658,886.660 1356.834,919.355 1358.128,919.348 " />
<polygon stroke="black" stroke-width="1" fill="rgb(204, 204, 204)" fill-opacity="0.25" points="1834.825,1696.826 1837.223,1696.812 1837.039,1666.246 1834.640,1666.261 " />
<polygon stroke="black" stroke-width="1" fill="rgb(204, 204, 204)" fill-opacity="0.25" points="1806.581,1952.698 1813.157,1952.698 1813.157,1928.894 1806.581,1928.894 " />
<polygon stroke="black" stroke-width="1" fill="rgb(204, 204, 204)" fill-opacity="0.25" points="1835.009,1727.391 1837.408,1727.377 1837.223,1696.812 1834.825,1696.826 " />
<polygon stroke="black" stroke-width="1" fill="rgb(204, 204, 204)" fill-opacity="0.25" points="94.114,94.154 70.309,94.135 70.309,332.176 94.113,332.195 " />
<polygon stroke="black" stroke-width="1" fill="rgb(204, 204, 204)" fill-opacity="0.25" points="23.055,94.132 0.667,94.148 0.666,332.188 23.055,332.173 " />
<polygon stroke="black" stroke-width="1" fill="rgb(204, 204, 204)" fill-opacity="0.25" points="1813.156,1429.011 1806.580,1429.011 1806.580,1452.815 1813.156,1452.815 " />
<polygon stroke="black" stroke-width="1" fill="rgb(204, 204, 204)" fill-opacity="0.25" points="1355.804,1100.315 1357.098,1100.308 1356.923,1067.614 1355.629,1067.621 " />
<polygon stroke="black" stroke-width="1" fill="rgb(204, 204, 204)" fill-opacity="0.25" points="1837.835,1360.800 1835.437,1360.814 1835.621,1391.379 1838.019,1391.365 " />
<polygon stroke="black" stroke-width="1" fill="rgb(204, 204, 204)" fill-opacity="0.25" points="1837.651,1330.234 1835.252,1330.249 1835.437,1360.814 1837.835,1360.800 " />
<polygon stroke="black" stroke-width="1" fill="rgb(204, 204, 204)" fill-opacity="0.25" points="1813.156,1333.742 1806.580,1333.742 1806.580,1357.901 1813.156,1357.901 " />
<polygon stroke="black" stroke-width="1" fill="rgb(204, 204, 204)" fill-opacity="0.25" points="1813.156,1357.901 1806.580,1357.901 1806.580,1381.706 1813.156,1381.706 " />
<polygon stroke="black" stroke-width="1" fill="rgb(204, 204, 204)" fill-opacity="0.25" points="1837.469,1300.059 1837.284,1269.493 1834.886,1269.508 1835.070,1300.073 " />
<polygon stroke="black" stroke-width="1" fill="rgb(204, 204, 204)" fill-opacity="0.25" points="1813.156,1381.706 1806.580,1381.706 1806.580,1405.207 1813.156,1405.207 " />
<polygon stroke="black" stroke-width="1" fill="rgb(204, 204, 204)" fill-opacity="0.25" points="1837.469,1300.059 1835.070,1300.073 1835.252,1330.249 1837.651,1330.234 " />
<polygon stroke="black" stroke-width="1" fill="rgb(204, 204, 204)" fill-opacity="0.25" points="1813.156,1405.207 1806.580,1405.207 1806.580,1429.011 1813.156,1429.011 " />
<polygon stroke="black" stroke-width="1" fill="rgb(204, 204, 204)" fill-opacity="0.25" points="1357.610,1196.029 1357.445,1165.279 1356.152,1165.286 1356.326,1197.980 " />
<polygon stroke="black" stroke-width="1" fill="rgb(204, 204, 204)" fill-opacity="0.25" points="1357.445,1165.279 1357.273,1133.002 1355.979,1133.008 1356.152,1165.286 " />
<polygon stroke="black" stroke-width="1" fill="rgb(204, 204, 204)" fill-opacity="0.25" points="1355.979,1133.008 1357.273,1133.002 1357.098,1100.308 1355.804,1100.315 " />
<polygon stroke="black" stroke-width="1" fill="rgb(204, 204, 204)" fill-opacity="0.25" points="1355.629,1067.621 1356.923,1067.614 1357.526,993.481 1356.232,993.488 " />
<polygon stroke="black" stroke-width="1" fill="rgb(204, 204, 204)" fill-opacity="0.25" points="1838.019,1391.365 1835.621,1391.379 1835.130,1528.820 1837.528,1528.805 " />
<polygon stroke="black" stroke-width="1" fill="rgb(204, 204, 204)" fill-opacity="0.25" points="1813.156,1452.815 1806.580,1452.815 1806.581,1690.855 1813.157,1690.855 " />
<polygon stroke="black" stroke-width="1" fill="rgb(204, 204, 204)" fill-opacity="0.25" points="1594.023,355.582 1594.023,332.081 1355.983,332.362 1355.983,355.863 " />
<polygon stroke="black" stroke-width="1" fill="rgb(204, 204, 204)" fill-opacity="0.25" points="1843.606,2047.371 1846.004,2047.381 1846.138,2016.815 1843.739,2016.805 " />
<polygon stroke="black" stroke-width="1" fill="rgb(204, 204, 204)" fill-opacity="0.25" points="357.679,690.660 357.679,666.856 333.875,666.856 333.875,690.660 " />
<polygon stroke="black" stroke-width="1" fill="rgb(204, 204, 204)" fill-opacity="0.25" points="716.524,1408.715 755.600,1369.696 716.581,1330.620 677.505,1369.640 " />
<polygon stroke="black" stroke-width="1" fill="rgb(204, 204, 204)" fill-opacity="0.25" points="755.600,1369.696 794.676,1330.677 755.656,1291.601 716.581,1330.620 " />
<polygon stroke="black" stroke-width="1" fill="rgb(204, 204, 204)" fill-opacity="0.25" points="1846.138,2016.815 1846.270,1986.639 1843.871,1986.629 1843.739,2016.805 " />
<polygon stroke="black" stroke-width="1" fill="rgb(204, 204, 204)" fill-opacity="0.25" points="333.875,666.856 310.071,666.856 310.071,690.660 333.875,690.660 " />
<polygon stroke="black" stroke-width="1" fill="rgb(204, 204, 204)" fill-opacity="0.25" points="357.679,666.856 357.679,643.052 333.875,643.052 333.875,666.856 " />
<polygon stroke="black" stroke-width="1" fill="rgb(204, 204, 204)" fill-opacity="0.25" points="310.071,619.552 286.621,619.552 286.621,643.052 310.071,643.052 " />
<polygon stroke="black" stroke-width="1" fill="rgb(204, 204, 204)" fill-opacity="0.25" points="1744.865,2009.255 1717.711,1991.045 1716.410,1992.985 1743.565,2011.194 " />
<polygon stroke="black" stroke-width="1" fill="rgb(204, 204, 204)" fill-opacity="0.25" points="333.875,643.052 310.071,643.052 310.071,666.856 333.875,666.856 " />
<polygon stroke="black" stroke-width="1" fill="rgb(204, 204, 204)" fill-opacity="0.25" points="716.524,1408.715 755.543,1447.791 794.619,1408.772 755.600,1369.696 " />
<polygon stroke="black" stroke-width="1" fill="rgb(204, 204, 204)" fill-opacity="0.25" points="794.676,1330.677 833.253,1292.155 794.234,1253.079 755.656,1291.601 " />
<polygon stroke="black" stroke-width="1" fill="rgb(204, 204, 204)" fill-opacity="0.25" points="666.164,332.282 688.553,332.297 688.568,309.908 666.179,309.893 " />
<polygon stroke="black" stroke-width="1" fill="rgb(204, 204, 204)" fill-opacity="0.25" points="1844.182,1040.834 1846.580,1040.844 1846.714,1010.279 1844.315,1010.268 " />
<polygon stroke="black" stroke-width="1" fill="rgb(204, 204, 204)" fill-opacity="0.25" points="333.875,619.552 333.875,595.747 310.071,595.747 310.071,619.552 " />
<polygon stroke="black" stroke-width="1" fill="rgb(204, 204, 204)" fill-opacity="0.25" points="333.875,643.052 333.875,619.552 310.071,619.552 310.071,643.052 " />
<polygon stroke="black" stroke-width="1" fill="rgb(204, 204, 204)" fill-opacity="0.25" points="712.034,286.424 712.051,262.620 688.601,262.604 688.584,286.408 " />
<polygon stroke="black" stroke-width="1" fill="rgb(204, 204, 204)" fill-opacity="0.25" points="759.659,238.778 997.699,238.659 997.699,0.619 759.659,0.737 " />
<polygon stroke="black" stroke-width="1" fill="rgb(204, 204, 204)" fill-opacity="0.25" points="833.253,1292.155 872.329,1253.136 833.310,1214.060 794.234,1253.079 " />
<polygon stroke="black" stroke-width="1" fill="rgb(204, 204, 204)" fill-opacity="0.25" points="1844.182,1040.834 1844.050,1070.945 1846.448,1070.956 1846.580,1040.844 " />
<polygon stroke="black" stroke-width="1" fill="rgb(204, 204, 204)" fill-opacity="0.25" points="688.568,309.908 688.584,286.408 666.196,286.392 666.179,309.893 " />
<polygon stroke="black" stroke-width="1" fill="rgb(204, 204, 204)" fill-opacity="0.25" points="755.543,1447.791 794.563,1486.867 833.058,1447.266 794.619,1408.772 " />
<polygon stroke="black" stroke-width="1" fill="rgb(204, 204, 204)" fill-opacity="0.25" points="357.679,643.052 357.679,619.552 333.875,619.552 333.875,643.052 " />
<polygon stroke="black" stroke-width="1" fill="rgb(204, 204, 204)" fill-opacity="0.25" points="712.003,332.313 735.807,332.294 735.822,309.906 712.018,309.925 " />
<polygon stroke="black" stroke-width="1" fill="rgb(204, 204, 204)" fill-opacity="0.25" points="1743.370,1381.503 1716.109,1399.555 1717.396,1401.504 1744.656,1383.452 " />
<polygon stroke="black" stroke-width="1" fill="rgb(204, 204, 204)" fill-opacity="0.25" points="286.621,666.856 262.817,666.821 262.463,690.660 286.267,690.660 " />
<polygon stroke="black" stroke-width="1" fill="rgb(204, 204, 204)" fill-opacity="0.25" points="1844.050,1070.945 1843.916,1101.511 1846.315,1101.521 1846.448,1070.956 " />
<polygon stroke="black" stroke-width="1" fill="rgb(204, 204, 204)" fill-opacity="0.25" points="286.621,595.747 262.817,595.712 262.817,619.516 286.621,619.552 " />
<polygon stroke="black" stroke-width="1" fill="rgb(204, 204, 204)" fill-opacity="0.25" points="688.553,332.297 712.003,332.313 712.018,309.925 688.568,309.908 " />
<polygon stroke="black" stroke-width="1" fill="rgb(204, 204, 204)" fill-opacity="0.25" points="310.071,666.856 286.621,666.856 286.267,690.660 310.071,690.660 " />
<polygon stroke="black" stroke-width="1" fill="rgb(204, 204, 204)" fill-opacity="0.25" points="688.568,309.908 712.018,309.925 712.034,286.424 688.584,286.408 " />
<polygon stroke="black" stroke-width="1" fill="rgb(204, 204, 204)" fill-opacity="0.25" points="310.071,643.052 286.621,643.052 286.621,666.856 310.071,666.856 " />
<polygon stroke="black" stroke-width="1" fill="rgb(204, 204, 204)" fill-opacity="0.25" points="310.071,619.552 310.071,595.747 286.621,595.747 286.621,619.552 " />
<polygon stroke="black" stroke-width="1" fill="rgb(204, 204, 204)" fill-opacity="0.25" points="1771.674,2027.232 1770.374,2029.172 1797.528,2047.381 1797.214,2044.359 " />
<polygon stroke="black" stroke-width="1" fill="rgb(204, 204, 204)" fill-opacity="0.25" points="1797.193,1348.754 1797.528,1345.734 1770.246,1363.753 1771.533,1365.701 " />
<polygon stroke="black" stroke-width="1" fill="rgb(204, 204, 204)" fill-opacity="0.25" points="1771.533,1365.701 1770.246,1363.753 1743.370,1381.503 1744.656,1383.452 " />
<polygon stroke="black" stroke-width="1" fill="rgb(204, 204, 204)" fill-opacity="0.25" points="759.659,262.582 759.659,238.778 735.855,238.797 735.855,262.601 " />
<polygon stroke="black" stroke-width="1" fill="rgb(204, 204, 204)" fill-opacity="0.25" points="1744.865,2009.255 1743.565,2011.194 1770.374,2029.172 1771.674,2027.232 " />
<polygon stroke="black" stroke-width="1" fill="rgb(204, 204, 204)" fill-opacity="0.25" points="794.563,1486.867 833.582,1525.942 872.135,1486.284 833.058,1447.266 " />
<polygon stroke="black" stroke-width="1" fill="rgb(204, 204, 204)" fill-opacity="0.25" points="286.621,619.552 262.817,619.516 262.817,643.017 286.621,643.052 " />
<polygon stroke="black" stroke-width="1" fill="rgb(204, 204, 204)" fill-opacity="0.25" points="872.329,1253.136 911.378,1214.090 872.385,1175.041 833.310,1214.060 " />
<polygon stroke="black" stroke-width="1" fill="rgb(204, 204, 204)" fill-opacity="0.25" points="735.855,262.601 735.855,238.797 712.051,238.816 712.051,262.620 " />
<polygon stroke="black" stroke-width="1" fill="rgb(204, 204, 204)" fill-opacity="0.25" points="357.679,595.747 357.679,571.943 333.891,571.943 333.875,595.747 " />
<polygon stroke="black" stroke-width="1" fill="rgb(204, 204, 204)" fill-opacity="0.25" points="286.621,595.747 286.637,571.943 262.833,571.908 262.817,595.712 " />
<polygon stroke="black" stroke-width="1" fill="rgb(204, 204, 204)" fill-opacity="0.25" points="1717.711,1991.045 1690.546,1972.852 1689.245,1974.791 1716.410,1992.985 " />
<polygon stroke="black" stroke-width="1" fill="rgb(204, 204, 204)" fill-opacity="0.25" points="1846.403,1956.073 1846.537,1925.507 1844.138,1925.497 1844.005,1956.063 " />
<polygon stroke="black" stroke-width="1" fill="rgb(204, 204, 204)" fill-opacity="0.25" points="333.875,595.747 333.891,571.943 310.087,571.943 310.071,595.747 " />
<polygon stroke="black" stroke-width="1" fill="rgb(204, 204, 204)" fill-opacity="0.25" points="688.584,286.408 688.601,262.604 666.212,262.588 666.196,286.392 " />
<polygon stroke="black" stroke-width="1" fill="rgb(204, 204, 204)" fill-opacity="0.25" points="286.621,643.052 262.817,643.017 262.817,666.821 286.621,666.856 " />
<polygon stroke="black" stroke-width="1" fill="rgb(204, 204, 204)" fill-opacity="0.25" points="1846.270,1986.639 1846.403,1956.073 1844.005,1956.063 1843.871,1986.629 " />
<polygon stroke="black" stroke-width="1" fill="rgb(204, 204, 204)" fill-opacity="0.25" points="357.679,619.552 357.679,595.747 333.875,595.747 333.875,619.552 " />
<polygon stroke="black" stroke-width="1" fill="rgb(204, 204, 204)" fill-opacity="0.25" points="310.071,595.747 310.087,571.943 286.637,571.943 286.621,595.747 " />
<polygon stroke="black" stroke-width="1" fill="rgb(204, 204, 204)" fill-opacity="0.25" points="735.807,332.294 759.611,332.275 759.626,309.886 735.822,309.906 " />
<polygon stroke="black" stroke-width="1" fill="rgb(204, 204, 204)" fill-opacity="0.25" points="833.582,1525.942 872.601,1565.018 911.212,1525.302 872.135,1486.284 " />
<polygon stroke="black" stroke-width="1" fill="rgb(204, 204, 204)" fill-opacity="0.25" points="239.013,595.677 0.973,595.395 0.973,619.199 239.013,619.481 " />
<polygon stroke="black" stroke-width="1" fill="rgb(204, 204, 204)" fill-opacity="0.25" points="262.817,619.516 239.013,619.481 239.013,642.982 262.817,643.017 " />
<polygon stroke="black" stroke-width="1" fill="rgb(204, 204, 204)" fill-opacity="0.25" points="262.817,595.712 239.013,595.677 239.013,619.481 262.817,619.516 " />
<polygon stroke="black" stroke-width="1" fill="rgb(204, 204, 204)" fill-opacity="0.25" points="688.601,262.604 688.601,238.800 666.212,238.784 666.212,262.588 " />
<polygon stroke="black" stroke-width="1" fill="rgb(204, 204, 204)" fill-opacity="0.25" points="262.817,643.017 239.013,642.982 239.013,666.786 262.817,666.821 " />
<polygon stroke="black" stroke-width="1" fill="rgb(204, 204, 204)" fill-opacity="0.25" points="735.838,286.405 759.642,286.386 759.659,262.582 735.855,262.601 " />
<polygon stroke="black" stroke-width="1" fill="rgb(204, 204, 204)" fill-opacity="0.25" points="1716.109,1399.555 1688.850,1417.607 1690.136,1419.556 1717.396,1401.504 " />
<polygon stroke="black" stroke-width="1" fill="rgb(204, 204, 204)" fill-opacity="0.25" points="712.018,309.925 735.822,309.906 735.838,286.405 712.034,286.424 " />
<polygon stroke="black" stroke-width="1" fill="rgb(204, 204, 204)" fill-opacity="0.25" points="712.034,286.424 735.838,286.405 735.855,262.601 712.051,262.620 " />
<polygon stroke="black" stroke-width="1" fill="rgb(204, 204, 204)" fill-opacity="0.25" points="239.013,642.982 0.973,642.700 0.973,666.504 239.013,666.786 " />
<polygon stroke="black" stroke-width="1" fill="rgb(204, 204, 204)" fill-opacity="0.25" points="239.029,571.873 0.989,571.591 0.973,595.395 239.013,595.677 " />
<polygon stroke="black" stroke-width="1" fill="rgb(204, 204, 204)" fill-opacity="0.25" points="759.642,286.386 997.683,286.267 997.699,262.463 759.659,262.582 " />
<polygon stroke="black" stroke-width="1" fill="rgb(204, 204, 204)" fill-opacity="0.25" points="1688.850,1417.607 1577.774,1492.196 1579.061,1494.144 1690.136,1419.556 " />
<polygon stroke="black" stroke-width="1" fill="rgb(204, 204, 204)" fill-opacity="0.25" points="239.192,333.833 1.152,333.551 0.989,571.591 239.029,571.873 " />
<polygon stroke="black" stroke-width="1" fill="rgb(204, 204, 204)" fill-opacity="0.25" points="1579.318,1770.821 1578.964,1696.693 1577.670,1696.688 1578.024,1770.817 " />
<polygon stroke="black" stroke-width="1" fill="rgb(204, 204, 204)" fill-opacity="0.25" points="239.013,666.786 0.973,666.504 0.619,690.660 238.659,690.660 " />
<polygon stroke="black" stroke-width="1" fill="rgb(204, 204, 204)" fill-opacity="0.25" points="1843.782,1132.077 1844.138,1269.510 1846.536,1269.521 1846.181,1132.087 " />
<polygon stroke="black" stroke-width="1" fill="rgb(204, 204, 204)" fill-opacity="0.25" points="759.626,309.886 997.667,309.768 997.683,286.267 759.642,286.386 " />
<polygon stroke="black" stroke-width="1" fill="rgb(204, 204, 204)" fill-opacity="0.25" points="1846.714,1666.264 1846.359,1528.830 1843.960,1528.819 1844.315,1666.254 " />
<polygon stroke="black" stroke-width="1" fill="rgb(204, 204, 204)" fill-opacity="0.25" points="759.611,332.275 997.651,332.157 997.667,309.768 759.626,309.886 " />
<polygon stroke="black" stroke-width="1" fill="rgb(204, 204, 204)" fill-opacity="0.25" points="735.822,309.906 759.626,309.886 759.642,286.386 735.838,286.405 " />
<polygon stroke="black" stroke-width="1" fill="rgb(204, 204, 204)" fill-opacity="0.25" points="1843.916,1101.511 1843.782,1132.077 1846.181,1132.087 1846.315,1101.521 " />
<polygon stroke="black" stroke-width="1" fill="rgb(204, 204, 204)" fill-opacity="0.25" points="262.817,666.821 239.013,666.786 238.659,690.660 262.463,690.660 " />
<polygon stroke="black" stroke-width="1" fill="rgb(204, 204, 204)" fill-opacity="0.25" points="712.051,238.816 712.051,0.776 688.601,0.759 688.601,238.800 " />
<polygon stroke="black" stroke-width="1" fill="rgb(204, 204, 204)" fill-opacity="0.25" points="262.833,571.908 262.996,333.868 239.192,333.833 239.029,571.873 " />
<polygon stroke="black" stroke-width="1" fill="rgb(204, 204, 204)" fill-opacity="0.25" points="759.659,262.582 997.699,262.463 997.699,238.659 759.659,238.778 " />
<polygon stroke="black" stroke-width="1" fill="rgb(204, 204, 204)" fill-opacity="0.25" points="911.378,1214.090 1301.867,823.630 1263.142,784.849 872.385,1175.041 " />
<polygon stroke="black" stroke-width="1" fill="rgb(204, 204, 204)" fill-opacity="0.25" points="1820.971,1928.895 1820.971,1690.855 1814.395,1690.855 1814.395,1928.895 " />
<polygon stroke="black" stroke-width="1" fill="rgb(204, 204, 204)" fill-opacity="0.25" points="735.855,238.797 735.855,0.757 712.051,0.776 712.051,238.816 " />
<polygon stroke="black" stroke-width="1" fill="rgb(204, 204, 204)" fill-opacity="0.25" points="357.679,571.943 357.679,333.903 334.054,333.903 333.891,571.943 " />
<polygon stroke="black" stroke-width="1" fill="rgb(204, 204, 204)" fill-opacity="0.25" points="872.601,1565.018 1262.792,1955.774 1301.867,1915.596 911.212,1525.302 " />
<polygon stroke="black" stroke-width="1" fill="rgb(204, 204, 204)" fill-opacity="0.25" points="286.637,571.943 286.800,333.903 262.996,333.868 262.833,571.908 " />
<polygon stroke="black" stroke-width="1" fill="rgb(204, 204, 204)" fill-opacity="0.25" points="1690.546,1972.852 1578.868,1899.171 1577.568,1901.110 1689.245,1974.791 " />
<polygon stroke="black" stroke-width="1" fill="rgb(204, 204, 204)" fill-opacity="0.25" points="1846.537,1925.507 1846.181,1788.073 1843.783,1788.063 1844.138,1925.497 " />
<polygon stroke="black" stroke-width="1" fill="rgb(204, 204, 204)" fill-opacity="0.25" points="333.891,571.943 334.054,333.903 310.250,333.903 310.087,571.943 " />
<polygon stroke="black" stroke-width="1" fill="rgb(204, 204, 204)" fill-opacity="0.25" points="310.087,571.943 310.250,333.903 286.800,333.903 286.637,571.943 " />
<polygon stroke="black" stroke-width="1" fill="rgb(204, 204, 204)" fill-opacity="0.25" points="262.817,595.712 262.833,571.908 239.029,571.873 239.013,595.677 " />
<polygon stroke="black" stroke-width="1" fill="rgb(204, 204, 204)" fill-opacity="0.25" points="712.051,262.620 712.051,238.816 688.601,238.800 688.601,262.604 " />
<polygon stroke="black" stroke-width="1" fill="rgb(204, 204, 204)" fill-opacity="0.25" points="1820.971,1976.503 1820.971,1952.699 1814.395,1952.699 1814.395,1976.503 " />
<polygon stroke="black" stroke-width="1" fill="rgb(204, 204, 204)" fill-opacity="0.25" points="1579.088,1836.211 1579.203,1803.516 1577.909,1803.512 1577.795,1836.207 " />
<polygon stroke="black" stroke-width="1" fill="rgb(204, 204, 204)" fill-opacity="0.25" points="1846.315,1757.508 1846.447,1727.396 1844.048,1727.386 1843.916,1757.497 " />
<polygon stroke="black" stroke-width="1" fill="rgb(204, 204, 204)" fill-opacity="0.25" points="1820.971,1999.953 1820.971,1976.503 1814.395,1976.503 1814.395,1999.953 " />
<polygon stroke="black" stroke-width="1" fill="rgb(204, 204, 204)" fill-opacity="0.25" points="1814.395,2023.757 1814.395,2047.381 1820.971,2047.381 1820.971,2023.757 " />
<polygon stroke="black" stroke-width="1" fill="rgb(204, 204, 204)" fill-opacity="0.25" points="1820.971,2023.757 1820.971,1999.953 1814.395,1999.953 1814.395,2023.757 " />
<polygon stroke="black" stroke-width="1" fill="rgb(204, 204, 204)" fill-opacity="0.25" points="1843.783,1788.063 1846.181,1788.073 1846.315,1757.508 1843.916,1757.497 " />
<polygon stroke="black" stroke-width="1" fill="rgb(204, 204, 204)" fill-opacity="0.25" points="1579.088,1836.211 1577.795,1836.207 1577.682,1868.416 1578.976,1868.420 " />
<polygon stroke="black" stroke-width="1" fill="rgb(204, 204, 204)" fill-opacity="0.25" points="1578.976,1868.420 1577.682,1868.416 1577.568,1901.110 1578.868,1899.171 " />
<polygon stroke="black" stroke-width="1" fill="rgb(204, 204, 204)" fill-opacity="0.25" points="1579.203,1803.516 1579.318,1770.821 1578.024,1770.817 1577.909,1803.512 " />
<polygon stroke="black" stroke-width="1" fill="rgb(204, 204, 204)" fill-opacity="0.25" points="1846.580,1696.830 1846.714,1666.264 1844.315,1666.254 1844.182,1696.820 " />
<polygon stroke="black" stroke-width="1" fill="rgb(204, 204, 204)" fill-opacity="0.25" points="1820.971,1952.699 1820.971,1928.895 1814.395,1928.895 1814.395,1952.699 " />
<polygon stroke="black" stroke-width="1" fill="rgb(204, 204, 204)" fill-opacity="0.25" points="1846.447,1727.396 1846.580,1696.830 1844.182,1696.820 1844.048,1727.386 " />
<polygon stroke="black" stroke-width="1" fill="rgb(204, 204, 204)" fill-opacity="0.25" points="759.659,238.778 759.659,0.737 735.855,0.757 735.855,238.797 " />
<polygon stroke="black" stroke-width="1" fill="rgb(204, 204, 204)" fill-opacity="0.25" points="688.601,238.800 688.601,0.759 666.212,0.744 666.212,238.784 " />
<polygon stroke="black" stroke-width="1" fill="rgb(204, 204, 204)" fill-opacity="0.25" points="1814.395,1429.011 1814.395,1452.815 1820.971,1452.815 1820.971,1429.011 " />
<polygon stroke="black" stroke-width="1" fill="rgb(204, 204, 204)" fill-opacity="0.25" points="1577.431,1589.865 1577.316,1622.560 1578.610,1622.565 1578.724,1589.869 " />
<polygon stroke="black" stroke-width="1" fill="rgb(204, 204, 204)" fill-opacity="0.25" points="1843.738,1360.819 1843.604,1391.385 1846.003,1391.396 1846.137,1360.829 " />
<polygon stroke="black" stroke-width="1" fill="rgb(204, 204, 204)" fill-opacity="0.25" points="1843.872,1330.253 1843.738,1360.819 1846.137,1360.829 1846.271,1330.263 " />
<polygon stroke="black" stroke-width="1" fill="rgb(204, 204, 204)" fill-opacity="0.25" points="1814.395,1333.743 1814.395,1357.902 1820.971,1357.902 1820.971,1333.743 " />
<polygon stroke="black" stroke-width="1" fill="rgb(204, 204, 204)" fill-opacity="0.25" points="1814.395,1357.902 1814.395,1381.706 1820.971,1381.706 1820.971,1357.902 " />
<polygon stroke="black" stroke-width="1" fill="rgb(204, 204, 204)" fill-opacity="0.25" points="1844.004,1300.076 1846.403,1300.087 1846.536,1269.521 1844.138,1269.510 " />
<polygon stroke="black" stroke-width="1" fill="rgb(204, 204, 204)" fill-opacity="0.25" points="1814.395,1381.706 1814.395,1405.207 1820.971,1405.207 1820.971,1381.706 " />
<polygon stroke="black" stroke-width="1" fill="rgb(204, 204, 204)" fill-opacity="0.25" points="1844.004,1300.076 1843.872,1330.253 1846.271,1330.263 1846.403,1300.087 " />
<polygon stroke="black" stroke-width="1" fill="rgb(204, 204, 204)" fill-opacity="0.25" points="1814.395,1405.207 1814.395,1429.011 1820.971,1429.011 1820.971,1405.207 " />
<polygon stroke="black" stroke-width="1" fill="rgb(204, 204, 204)" fill-opacity="0.25" points="1579.061,1494.144 1577.774,1492.196 1577.659,1524.891 1578.953,1524.896 " />
<polygon stroke="black" stroke-width="1" fill="rgb(204, 204, 204)" fill-opacity="0.25" points="1578.953,1524.896 1577.659,1524.891 1577.545,1557.170 1578.839,1557.174 " />
<polygon stroke="black" stroke-width="1" fill="rgb(204, 204, 204)" fill-opacity="0.25" points="1577.545,1557.170 1577.431,1589.865 1578.724,1589.869 1578.839,1557.174 " />
<polygon stroke="black" stroke-width="1" fill="rgb(204, 204, 204)" fill-opacity="0.25" points="1577.316,1622.560 1577.670,1696.688 1578.964,1696.693 1578.610,1622.565 " />
<polygon stroke="black" stroke-width="1" fill="rgb(204, 204, 204)" fill-opacity="0.25" points="1843.604,1391.385 1843.960,1528.819 1846.359,1528.830 1846.003,1391.396 " />
<polygon stroke="black" stroke-width="1" fill="rgb(204, 204, 204)" fill-opacity="0.25" points="1814.395,1452.815 1814.395,1690.855 1820.971,1690.855 1820.971,1452.815 " />
<polygon stroke="black" stroke-width="1" fill="rgb(204, 204, 204)" fill-opacity="0.25" points="239.013,619.481 0.973,619.199 0.973,642.700 239.013,642.982 " />
<polygon stroke="black" stroke-width="1" fill="rgb(204, 204, 204)" fill-opacity="0.25" points="1842.367,1010.279 1839.968,1010.269 1839.834,1040.835 1842.233,1040.845 " />
<polygon stroke="black" stroke-width="1" fill="rgb(204, 204, 204)" fill-opacity="0.25" points="715.977,690.660 715.977,666.856 692.173,666.856 692.173,690.660 " />
<polygon stroke="black" stroke-width="1" fill="rgb(204, 204, 204)" fill-opacity="0.25" points="638.486,1330.564 599.410,1369.583 638.429,1408.659 677.505,1369.640 " />
<polygon stroke="black" stroke-width="1" fill="rgb(204, 204, 204)" fill-opacity="0.25" points="599.410,1369.583 560.335,1408.602 599.354,1447.678 638.429,1408.659 " />
<polygon stroke="black" stroke-width="1" fill="rgb(204, 204, 204)" fill-opacity="0.25" points="1839.834,1040.835 1839.702,1071.011 1842.101,1071.021 1842.233,1040.845 " />
<polygon stroke="black" stroke-width="1" fill="rgb(204, 204, 204)" fill-opacity="0.25" points="692.173,666.856 668.369,666.856 668.369,690.660 692.173,690.660 " />
<polygon stroke="black" stroke-width="1" fill="rgb(204, 204, 204)" fill-opacity="0.25" points="715.977,666.856 715.977,643.052 692.173,643.052 692.173,666.856 " />
<polygon stroke="black" stroke-width="1" fill="rgb(204, 204, 204)" fill-opacity="0.25" points="668.369,619.552 644.919,619.552 644.919,643.052 668.369,643.052 " />
<polygon stroke="black" stroke-width="1" fill="rgb(204, 204, 204)" fill-opacity="0.25" points="1744.865,1306.320 1717.711,1288.111 1716.410,1290.050 1743.565,1308.260 " />
<polygon stroke="black" stroke-width="1" fill="rgb(204, 204, 204)" fill-opacity="0.25" points="692.173,643.052 668.369,643.052 668.369,666.856 692.173,666.856 " />
<polygon stroke="black" stroke-width="1" fill="rgb(204, 204, 204)" fill-opacity="0.25" points="638.486,1330.564 599.467,1291.488 560.391,1330.508 599.410,1369.583 " />
<polygon stroke="black" stroke-width="1" fill="rgb(204, 204, 204)" fill-opacity="0.25" points="560.335,1408.602 521.757,1447.124 560.776,1486.200 599.354,1447.678 " />
<polygon stroke="black" stroke-width="1" fill="rgb(204, 204, 204)" fill-opacity="0.25" points="333.391,332.282 355.780,332.297 355.795,309.908 333.407,309.893 " />
<polygon stroke="black" stroke-width="1" fill="rgb(204, 204, 204)" fill-opacity="0.25" points="1841.790,2016.816 1839.392,2016.805 1839.258,2047.371 1841.656,2047.381 " />
<polygon stroke="black" stroke-width="1" fill="rgb(204, 204, 204)" fill-opacity="0.25" points="692.173,619.552 692.173,595.747 668.369,595.747 668.369,619.552 " />
<polygon stroke="black" stroke-width="1" fill="rgb(204, 204, 204)" fill-opacity="0.25" points="692.173,643.052 692.173,619.552 668.369,619.552 668.369,643.052 " />
<polygon stroke="black" stroke-width="1" fill="rgb(204, 204, 204)" fill-opacity="0.25" points="379.262,286.424 379.278,262.620 355.828,262.604 355.812,286.408 " />
<polygon stroke="black" stroke-width="1" fill="rgb(204, 204, 204)" fill-opacity="0.25" points="426.886,238.778 664.926,238.659 664.926,0.619 426.886,0.737 " />
<polygon stroke="black" stroke-width="1" fill="rgb(204, 204, 204)" fill-opacity="0.25" points="521.757,1447.124 482.681,1486.144 521.700,1525.219 560.776,1486.200 " />
<polygon stroke="black" stroke-width="1" fill="rgb(204, 204, 204)" fill-opacity="0.25" points="1841.790,2016.816 1841.922,1986.704 1839.523,1986.694 1839.392,2016.805 " />
<polygon stroke="black" stroke-width="1" fill="rgb(204, 204, 204)" fill-opacity="0.25" points="355.795,309.908 355.812,286.408 333.423,286.392 333.407,309.893 " />
<polygon stroke="black" stroke-width="1" fill="rgb(204, 204, 204)" fill-opacity="0.25" points="599.467,1291.488 560.448,1252.413 521.952,1292.013 560.391,1330.508 " />
<polygon stroke="black" stroke-width="1" fill="rgb(204, 204, 204)" fill-opacity="0.25" points="715.977,643.052 715.977,619.552 692.173,619.552 692.173,643.052 " />
<polygon stroke="black" stroke-width="1" fill="rgb(204, 204, 204)" fill-opacity="0.25" points="379.230,332.313 403.034,332.294 403.050,309.905 379.246,309.925 " />
<polygon stroke="black" stroke-width="1" fill="rgb(204, 204, 204)" fill-opacity="0.25" points="1743.369,678.570 1716.109,696.622 1717.396,698.571 1744.656,680.518 " />
<polygon stroke="black" stroke-width="1" fill="rgb(204, 204, 204)" fill-opacity="0.25" points="644.919,666.856 621.115,666.821 620.761,690.660 644.565,690.660 " />
<polygon stroke="black" stroke-width="1" fill="rgb(204, 204, 204)" fill-opacity="0.25" points="1841.922,1986.704 1842.056,1956.139 1839.657,1956.128 1839.523,1986.694 " />
<polygon stroke="black" stroke-width="1" fill="rgb(204, 204, 204)" fill-opacity="0.25" points="644.919,595.747 621.115,595.712 621.115,619.516 644.919,619.552 " />
<polygon stroke="black" stroke-width="1" fill="rgb(204, 204, 204)" fill-opacity="0.25" points="355.780,332.297 379.230,332.313 379.246,309.925 355.795,309.908 " />
<polygon stroke="black" stroke-width="1" fill="rgb(204, 204, 204)" fill-opacity="0.25" points="668.369,666.856 644.919,666.856 644.565,690.660 668.369,690.660 " />
<polygon stroke="black" stroke-width="1" fill="rgb(204, 204, 204)" fill-opacity="0.25" points="355.795,309.908 379.246,309.925 379.262,286.424 355.812,286.408 " />
<polygon stroke="black" stroke-width="1" fill="rgb(204, 204, 204)" fill-opacity="0.25" points="668.369,643.052 644.919,643.052 644.919,666.856 668.369,666.856 " />
<polygon stroke="black" stroke-width="1" fill="rgb(204, 204, 204)" fill-opacity="0.25" points="668.369,619.552 668.369,595.747 644.919,595.747 644.919,619.552 " />
<polygon stroke="black" stroke-width="1" fill="rgb(204, 204, 204)" fill-opacity="0.25" points="1771.674,1324.297 1770.373,1326.237 1797.528,1344.446 1797.214,1341.424 " />
<polygon stroke="black" stroke-width="1" fill="rgb(204, 204, 204)" fill-opacity="0.25" points="1797.193,645.821 1797.528,642.801 1770.245,660.819 1771.532,662.768 " />
<polygon stroke="black" stroke-width="1" fill="rgb(204, 204, 204)" fill-opacity="0.25" points="1771.532,662.768 1770.245,660.819 1743.369,678.570 1744.656,680.518 " />
<polygon stroke="black" stroke-width="1" fill="rgb(204, 204, 204)" fill-opacity="0.25" points="426.886,262.582 426.886,238.778 403.082,238.797 403.082,262.601 " />
<polygon stroke="black" stroke-width="1" fill="rgb(204, 204, 204)" fill-opacity="0.25" points="1744.865,1306.320 1743.565,1308.260 1770.373,1326.237 1771.674,1324.297 " />
<polygon stroke="black" stroke-width="1" fill="rgb(204, 204, 204)" fill-opacity="0.25" points="560.448,1252.413 521.428,1213.337 482.875,1252.995 521.952,1292.013 " />
<polygon stroke="black" stroke-width="1" fill="rgb(204, 204, 204)" fill-opacity="0.25" points="644.919,619.552 621.115,619.516 621.115,643.017 644.919,643.052 " />
<polygon stroke="black" stroke-width="1" fill="rgb(204, 204, 204)" fill-opacity="0.25" points="482.681,1486.144 443.632,1525.190 482.625,1564.238 521.700,1525.219 " />
<polygon stroke="black" stroke-width="1" fill="rgb(204, 204, 204)" fill-opacity="0.25" points="403.082,262.601 403.082,238.797 379.278,238.816 379.278,262.620 " />
<polygon stroke="black" stroke-width="1" fill="rgb(204, 204, 204)" fill-opacity="0.25" points="715.977,595.747 715.977,571.943 692.189,571.943 692.173,595.747 " />
<polygon stroke="black" stroke-width="1" fill="rgb(204, 204, 204)" fill-opacity="0.25" points="644.919,595.747 644.935,571.943 621.131,571.908 621.115,595.712 " />
<polygon stroke="black" stroke-width="1" fill="rgb(204, 204, 204)" fill-opacity="0.25" points="1717.711,1288.111 1690.546,1269.917 1689.245,1271.856 1716.410,1290.050 " />
<polygon stroke="black" stroke-width="1" fill="rgb(204, 204, 204)" fill-opacity="0.25" points="1839.569,1101.577 1839.435,1132.143 1841.833,1132.153 1841.967,1101.587 " />
<polygon stroke="black" stroke-width="1" fill="rgb(204, 204, 204)" fill-opacity="0.25" points="692.173,595.747 692.189,571.943 668.385,571.943 668.369,595.747 " />
<polygon stroke="black" stroke-width="1" fill="rgb(204, 204, 204)" fill-opacity="0.25" points="355.812,286.408 355.828,262.604 333.439,262.588 333.423,286.392 " />
<polygon stroke="black" stroke-width="1" fill="rgb(204, 204, 204)" fill-opacity="0.25" points="644.919,643.052 621.115,643.017 621.115,666.821 644.919,666.856 " />
<polygon stroke="black" stroke-width="1" fill="rgb(204, 204, 204)" fill-opacity="0.25" points="1839.702,1071.011 1839.569,1101.577 1841.967,1101.587 1842.101,1071.021 " />
<polygon stroke="black" stroke-width="1" fill="rgb(204, 204, 204)" fill-opacity="0.25" points="715.977,619.552 715.977,595.747 692.173,595.747 692.173,619.552 " />
<polygon stroke="black" stroke-width="1" fill="rgb(204, 204, 204)" fill-opacity="0.25" points="668.369,595.747 668.385,571.943 644.935,571.943 644.919,595.747 " />
<polygon stroke="black" stroke-width="1" fill="rgb(204, 204, 204)" fill-opacity="0.25" points="403.034,332.294 426.838,332.275 426.854,309.886 403.050,309.905 " />
<polygon stroke="black" stroke-width="1" fill="rgb(204, 204, 204)" fill-opacity="0.25" points="521.428,1213.337 482.409,1174.262 443.798,1213.978 482.875,1252.995 " />
<polygon stroke="black" stroke-width="1" fill="rgb(204, 204, 204)" fill-opacity="0.25" points="597.311,595.677 359.271,595.395 359.271,619.199 597.311,619.481 " />
<polygon stroke="black" stroke-width="1" fill="rgb(204, 204, 204)" fill-opacity="0.25" points="621.115,619.516 597.311,619.481 597.311,642.982 621.115,643.017 " />
<polygon stroke="black" stroke-width="1" fill="rgb(204, 204, 204)" fill-opacity="0.25" points="621.115,595.712 597.311,595.677 597.311,619.481 621.115,619.516 " />
<polygon stroke="black" stroke-width="1" fill="rgb(204, 204, 204)" fill-opacity="0.25" points="355.828,262.604 355.828,238.800 333.439,238.784 333.439,262.588 " />
<polygon stroke="black" stroke-width="1" fill="rgb(204, 204, 204)" fill-opacity="0.25" points="621.115,643.017 597.311,642.982 597.311,666.786 621.115,666.821 " />
<polygon stroke="black" stroke-width="1" fill="rgb(204, 204, 204)" fill-opacity="0.25" points="403.066,286.405 426.870,286.386 426.886,262.582 403.082,262.601 " />
<polygon stroke="black" stroke-width="1" fill="rgb(204, 204, 204)" fill-opacity="0.25" points="1716.109,696.622 1688.849,714.674 1690.136,716.622 1717.396,698.571 " />
<polygon stroke="black" stroke-width="1" fill="rgb(204, 204, 204)" fill-opacity="0.25" points="379.246,309.925 403.050,309.905 403.066,286.405 379.262,286.424 " />
<polygon stroke="black" stroke-width="1" fill="rgb(204, 204, 204)" fill-opacity="0.25" points="379.262,286.424 403.066,286.405 403.082,262.601 379.278,262.620 " />
<polygon stroke="black" stroke-width="1" fill="rgb(204, 204, 204)" fill-opacity="0.25" points="597.311,642.982 359.271,642.700 359.271,666.504 597.311,666.786 " />
<polygon stroke="black" stroke-width="1" fill="rgb(204, 204, 204)" fill-opacity="0.25" points="597.327,571.873 359.287,571.591 359.271,595.395 597.311,595.677 " />
<polygon stroke="black" stroke-width="1" fill="rgb(204, 204, 204)" fill-opacity="0.25" points="426.870,286.386 664.910,286.267 664.926,262.463 426.886,262.582 " />
<polygon stroke="black" stroke-width="1" fill="rgb(204, 204, 204)" fill-opacity="0.25" points="1688.849,714.674 1577.774,789.262 1579.061,791.211 1690.136,716.622 " />
<polygon stroke="black" stroke-width="1" fill="rgb(204, 204, 204)" fill-opacity="0.25" points="597.490,333.832 359.450,333.551 359.287,571.591 597.327,571.873 " />
<polygon stroke="black" stroke-width="1" fill="rgb(204, 204, 204)" fill-opacity="0.25" points="1579.318,1067.887 1578.964,993.759 1577.670,993.754 1578.024,1067.882 " />
<polygon stroke="black" stroke-width="1" fill="rgb(204, 204, 204)" fill-opacity="0.25" points="597.311,666.786 359.271,666.504 358.917,690.660 596.957,690.660 " />
<polygon stroke="black" stroke-width="1" fill="rgb(204, 204, 204)" fill-opacity="0.25" points="1842.189,1925.573 1841.833,1788.139 1839.435,1788.128 1839.791,1925.562 " />
<polygon stroke="black" stroke-width="1" fill="rgb(204, 204, 204)" fill-opacity="0.25" points="426.854,309.886 664.894,309.768 664.910,286.267 426.870,286.386 " />
<polygon stroke="black" stroke-width="1" fill="rgb(204, 204, 204)" fill-opacity="0.25" points="1839.257,1391.386 1839.613,1528.820 1842.011,1528.830 1841.656,1391.396 " />
<polygon stroke="black" stroke-width="1" fill="rgb(204, 204, 204)" fill-opacity="0.25" points="426.838,332.275 664.879,332.157 664.894,309.768 426.854,309.886 " />
<polygon stroke="black" stroke-width="1" fill="rgb(204, 204, 204)" fill-opacity="0.25" points="403.050,309.905 426.854,309.886 426.870,286.386 403.066,286.405 " />
<polygon stroke="black" stroke-width="1" fill="rgb(204, 204, 204)" fill-opacity="0.25" points="1842.056,1956.139 1842.189,1925.573 1839.791,1925.562 1839.657,1956.128 " />
<polygon stroke="black" stroke-width="1" fill="rgb(204, 204, 204)" fill-opacity="0.25" points="621.115,666.821 597.311,666.786 596.957,690.660 620.761,690.660 " />
<polygon stroke="black" stroke-width="1" fill="rgb(204, 204, 204)" fill-opacity="0.25" points="379.278,238.816 379.278,0.776 355.828,0.759 355.828,238.800 " />
<polygon stroke="black" stroke-width="1" fill="rgb(204, 204, 204)" fill-opacity="0.25" points="621.131,571.908 621.294,333.868 597.490,333.832 597.327,571.873 " />
<polygon stroke="black" stroke-width="1" fill="rgb(204, 204, 204)" fill-opacity="0.25" points="426.886,262.582 664.926,262.463 664.926,238.659 426.886,238.778 " />
<polygon stroke="black" stroke-width="1" fill="rgb(204, 204, 204)" fill-opacity="0.25" points="443.632,1525.190 53.144,1915.649 91.869,1954.431 482.625,1564.238 " />
<polygon stroke="black" stroke-width="1" fill="rgb(204, 204, 204)" fill-opacity="0.25" points="1828.785,1928.895 1828.785,1690.855 1822.209,1690.855 1822.209,1928.895 " />
<polygon stroke="black" stroke-width="1" fill="rgb(204, 204, 204)" fill-opacity="0.25" points="403.082,238.797 403.082,0.756 379.278,0.776 379.278,238.816 " />
<polygon stroke="black" stroke-width="1" fill="rgb(204, 204, 204)" fill-opacity="0.25" points="715.977,571.943 715.977,333.903 692.353,333.903 692.189,571.943 " />
<polygon stroke="black" stroke-width="1" fill="rgb(204, 204, 204)" fill-opacity="0.25" points="482.409,1174.262 92.218,783.505 53.144,823.683 443.798,1213.978 " />
<polygon stroke="black" stroke-width="1" fill="rgb(204, 204, 204)" fill-opacity="0.25" points="644.935,571.943 645.098,333.903 621.294,333.868 621.131,571.908 " />
<polygon stroke="black" stroke-width="1" fill="rgb(204, 204, 204)" fill-opacity="0.25" points="1690.546,1269.917 1578.868,1196.236 1577.568,1198.176 1689.245,1271.856 " />
<polygon stroke="black" stroke-width="1" fill="rgb(204, 204, 204)" fill-opacity="0.25" points="1839.435,1132.143 1839.790,1269.576 1842.189,1269.587 1841.833,1132.153 " />
<polygon stroke="black" stroke-width="1" fill="rgb(204, 204, 204)" fill-opacity="0.25" points="692.189,571.943 692.353,333.903 668.548,333.903 668.385,571.943 " />
<polygon stroke="black" stroke-width="1" fill="rgb(204, 204, 204)" fill-opacity="0.25" points="668.385,571.943 668.548,333.903 645.098,333.903 644.935,571.943 " />
<polygon stroke="black" stroke-width="1" fill="rgb(204, 204, 204)" fill-opacity="0.25" points="621.115,595.712 621.131,571.908 597.327,571.873 597.311,595.677 " />
<polygon stroke="black" stroke-width="1" fill="rgb(204, 204, 204)" fill-opacity="0.25" points="379.278,262.620 379.278,238.816 355.828,238.800 355.828,262.604 " />
<polygon stroke="black" stroke-width="1" fill="rgb(204, 204, 204)" fill-opacity="0.25" points="1828.785,1976.503 1828.785,1952.699 1822.209,1952.699 1822.209,1976.503 " />
<polygon stroke="black" stroke-width="1" fill="rgb(204, 204, 204)" fill-opacity="0.25" points="1579.088,1133.277 1579.203,1100.582 1577.909,1100.578 1577.795,1133.272 " />
<polygon stroke="black" stroke-width="1" fill="rgb(204, 204, 204)" fill-opacity="0.25" points="1839.656,1300.142 1839.525,1330.254 1841.923,1330.264 1842.055,1300.153 " />
<polygon stroke="black" stroke-width="1" fill="rgb(204, 204, 204)" fill-opacity="0.25" points="1828.785,1999.953 1828.785,1976.503 1822.209,1976.503 1822.209,1999.953 " />
<polygon stroke="black" stroke-width="1" fill="rgb(204, 204, 204)" fill-opacity="0.25" points="1822.209,2023.757 1822.209,2047.381 1828.785,2047.381 1828.785,2023.757 " />
<polygon stroke="black" stroke-width="1" fill="rgb(204, 204, 204)" fill-opacity="0.25" points="1828.785,2023.757 1828.785,1999.953 1822.209,1999.953 1822.209,2023.757 " />
<polygon stroke="black" stroke-width="1" fill="rgb(204, 204, 204)" fill-opacity="0.25" points="1842.189,1269.587 1839.790,1269.576 1839.656,1300.142 1842.055,1300.153 " />
<polygon stroke="black" stroke-width="1" fill="rgb(204, 204, 204)" fill-opacity="0.25" points="1579.088,1133.277 1577.795,1133.272 1577.682,1165.481 1578.976,1165.486 " />
<polygon stroke="black" stroke-width="1" fill="rgb(204, 204, 204)" fill-opacity="0.25" points="1578.976,1165.486 1577.682,1165.481 1577.568,1198.176 1578.868,1196.236 " />
<polygon stroke="black" stroke-width="1" fill="rgb(204, 204, 204)" fill-opacity="0.25" points="1579.203,1100.582 1579.318,1067.887 1578.024,1067.882 1577.909,1100.578 " />
<polygon stroke="black" stroke-width="1" fill="rgb(204, 204, 204)" fill-opacity="0.25" points="1839.391,1360.820 1839.257,1391.386 1841.656,1391.396 1841.790,1360.830 " />
<polygon stroke="black" stroke-width="1" fill="rgb(204, 204, 204)" fill-opacity="0.25" points="1828.785,1952.699 1828.785,1928.895 1822.209,1928.895 1822.209,1952.699 " />
<polygon stroke="black" stroke-width="1" fill="rgb(204, 204, 204)" fill-opacity="0.25" points="1839.525,1330.254 1839.391,1360.820 1841.790,1360.830 1841.923,1330.264 " />
<polygon stroke="black" stroke-width="1" fill="rgb(204, 204, 204)" fill-opacity="0.25" points="426.886,238.778 426.886,0.737 403.082,0.756 403.082,238.797 " />
<polygon stroke="black" stroke-width="1" fill="rgb(204, 204, 204)" fill-opacity="0.25" points="355.828,238.800 355.828,0.759 333.439,0.744 333.439,238.784 " />
<polygon stroke="black" stroke-width="1" fill="rgb(204, 204, 204)" fill-opacity="0.25" points="1822.209,1429.011 1822.209,1452.815 1828.785,1452.815 1828.785,1429.011 " />
<polygon stroke="black" stroke-width="1" fill="rgb(204, 204, 204)" fill-opacity="0.25" points="1577.431,886.931 1577.316,919.626 1578.610,919.631 1578.724,886.935 " />
<polygon stroke="black" stroke-width="1" fill="rgb(204, 204, 204)" fill-opacity="0.25" points="1842.233,1696.831 1842.367,1666.265 1839.968,1666.254 1839.834,1696.820 " />
<polygon stroke="black" stroke-width="1" fill="rgb(204, 204, 204)" fill-opacity="0.25" points="1842.099,1727.397 1842.233,1696.831 1839.834,1696.820 1839.701,1727.386 " />
<polygon stroke="black" stroke-width="1" fill="rgb(204, 204, 204)" fill-opacity="0.25" points="1822.209,1333.743 1822.209,1357.902 1828.785,1357.902 1828.785,1333.743 " />
<polygon stroke="black" stroke-width="1" fill="rgb(204, 204, 204)" fill-opacity="0.25" points="1822.209,1357.902 1822.209,1381.706 1828.785,1381.706 1828.785,1357.902 " />
<polygon stroke="black" stroke-width="1" fill="rgb(204, 204, 204)" fill-opacity="0.25" points="1841.967,1757.573 1839.569,1757.563 1839.435,1788.128 1841.833,1788.139 " />
<polygon stroke="black" stroke-width="1" fill="rgb(204, 204, 204)" fill-opacity="0.25" points="1822.209,1381.706 1822.209,1405.207 1828.785,1405.207 1828.785,1381.706 " />
<polygon stroke="black" stroke-width="1" fill="rgb(204, 204, 204)" fill-opacity="0.25" points="1841.967,1757.573 1842.099,1727.397 1839.701,1727.386 1839.569,1757.563 " />
<polygon stroke="black" stroke-width="1" fill="rgb(204, 204, 204)" fill-opacity="0.25" points="1822.209,1405.207 1822.209,1429.011 1828.785,1429.011 1828.785,1405.207 " />
<polygon stroke="black" stroke-width="1" fill="rgb(204, 204, 204)" fill-opacity="0.25" points="1579.061,791.211 1577.774,789.262 1577.659,821.957 1578.953,821.962 " />
<polygon stroke="black" stroke-width="1" fill="rgb(204, 204, 204)" fill-opacity="0.25" points="1578.953,821.962 1577.659,821.957 1577.545,854.236 1578.839,854.240 " />
<polygon stroke="black" stroke-width="1" fill="rgb(204, 204, 204)" fill-opacity="0.25" points="1577.545,854.236 1577.431,886.931 1578.724,886.935 1578.839,854.240 " />
<polygon stroke="black" stroke-width="1" fill="rgb(204, 204, 204)" fill-opacity="0.25" points="1577.316,919.626 1577.670,993.754 1578.964,993.759 1578.610,919.631 " />
<polygon stroke="black" stroke-width="1" fill="rgb(204, 204, 204)" fill-opacity="0.25" points="1842.367,1666.265 1842.011,1528.830 1839.613,1528.820 1839.968,1666.254 " />
<polygon stroke="black" stroke-width="1" fill="rgb(204, 204, 204)" fill-opacity="0.25" points="1822.209,1452.815 1822.209,1690.855 1828.785,1690.855 1828.785,1452.815 " />
<polygon stroke="black" stroke-width="1" fill="rgb(204, 204, 204)" fill-opacity="0.25" points="597.311,619.481 359.271,619.199 359.271,642.700 597.311,642.982 " />
<polygon stroke="black" stroke-width="1" fill="rgb(204, 204, 204)" fill-opacity="0.25" points="1833.402,2047.367 1833.218,2016.801 1830.819,2016.816 1831.004,2047.381 " />
<polygon stroke="black" stroke-width="1" fill="rgb(204, 204, 204)" fill-opacity="0.25" points="1074.275,333.551 1050.471,333.551 1050.471,357.355 1074.275,357.355 " />
<polygon stroke="black" stroke-width="1" fill="rgb(204, 204, 204)" fill-opacity="0.25" points="638.486,1330.564 677.505,1369.640 716.581,1330.620 677.561,1291.545 " />
<polygon stroke="black" stroke-width="1" fill="rgb(204, 204, 204)" fill-opacity="0.25" points="677.561,1291.545 716.581,1330.620 755.656,1291.601 716.637,1252.526 " />
<polygon stroke="black" stroke-width="1" fill="rgb(204, 204, 204)" fill-opacity="0.25" points="1830.819,2016.816 1833.218,2016.801 1833.036,1986.625 1830.637,1986.640 " />
<polygon stroke="black" stroke-width="1" fill="rgb(204, 204, 204)" fill-opacity="0.25" points="1050.471,357.355 1050.471,333.551 1026.667,333.551 1026.667,357.355 " />
<polygon stroke="black" stroke-width="1" fill="rgb(204, 204, 204)" fill-opacity="0.25" points="1074.275,357.355 1050.471,357.355 1050.471,381.159 1074.275,381.159 " />
<polygon stroke="black" stroke-width="1" fill="rgb(204, 204, 204)" fill-opacity="0.25" points="1026.667,404.660 1026.667,381.159 1003.217,381.159 1003.217,404.660 " />
<polygon stroke="black" stroke-width="1" fill="rgb(204, 204, 204)" fill-opacity="0.25" points="1523.487,1383.909 1522.183,1381.972 1495.062,1400.233 1496.367,1402.170 " />
<polygon stroke="black" stroke-width="1" fill="rgb(204, 204, 204)" fill-opacity="0.25" points="1050.471,381.159 1050.471,357.355 1026.667,357.355 1026.667,381.159 " />
<polygon stroke="black" stroke-width="1" fill="rgb(204, 204, 204)" fill-opacity="0.25" points="638.486,1330.564 677.561,1291.545 638.542,1252.469 599.467,1291.488 " />
<polygon stroke="black" stroke-width="1" fill="rgb(204, 204, 204)" fill-opacity="0.25" points="716.637,1252.526 755.656,1291.601 794.234,1253.079 755.215,1214.004 " />
<polygon stroke="black" stroke-width="1" fill="rgb(204, 204, 204)" fill-opacity="0.25" points="1713.927,309.848 1713.942,332.237 1736.331,332.222 1736.316,309.833 " />
<polygon stroke="black" stroke-width="1" fill="rgb(204, 204, 204)" fill-opacity="0.25" points="1832.610,1040.812 1832.426,1010.246 1830.027,1010.260 1830.212,1040.826 " />
<polygon stroke="black" stroke-width="1" fill="rgb(204, 204, 204)" fill-opacity="0.25" points="1050.471,404.660 1026.667,404.660 1026.667,428.464 1050.471,428.464 " />
<polygon stroke="black" stroke-width="1" fill="rgb(204, 204, 204)" fill-opacity="0.25" points="1050.471,381.159 1026.667,381.159 1026.667,404.660 1050.471,404.660 " />
<polygon stroke="black" stroke-width="1" fill="rgb(204, 204, 204)" fill-opacity="0.25" points="1759.797,355.706 1736.347,355.722 1736.364,379.526 1759.814,379.510 " />
<polygon stroke="black" stroke-width="1" fill="rgb(204, 204, 204)" fill-opacity="0.25" points="1807.422,403.353 1807.422,641.393 2045.462,641.511 2045.462,403.471 " />
<polygon stroke="black" stroke-width="1" fill="rgb(204, 204, 204)" fill-opacity="0.25" points="755.215,1214.004 794.234,1253.079 833.310,1214.060 794.291,1174.984 " />
<polygon stroke="black" stroke-width="1" fill="rgb(204, 204, 204)" fill-opacity="0.25" points="1832.610,1040.812 1830.212,1040.826 1830.393,1070.937 1832.792,1070.923 " />
<polygon stroke="black" stroke-width="1" fill="rgb(204, 204, 204)" fill-opacity="0.25" points="1736.331,332.222 1713.942,332.237 1713.958,355.738 1736.347,355.722 " />
<polygon stroke="black" stroke-width="1" fill="rgb(204, 204, 204)" fill-opacity="0.25" points="599.467,1291.488 638.542,1252.469 600.103,1213.974 560.448,1252.413 " />
<polygon stroke="black" stroke-width="1" fill="rgb(204, 204, 204)" fill-opacity="0.25" points="1074.275,381.159 1050.471,381.159 1050.471,404.660 1074.275,404.660 " />
<polygon stroke="black" stroke-width="1" fill="rgb(204, 204, 204)" fill-opacity="0.25" points="1759.766,309.817 1759.781,332.206 1783.585,332.225 1783.570,309.836 " />
<polygon stroke="black" stroke-width="1" fill="rgb(204, 204, 204)" fill-opacity="0.25" points="1521.857,2011.712 1523.141,2009.762 1495.849,1991.760 1494.566,1993.711 " />
<polygon stroke="black" stroke-width="1" fill="rgb(204, 204, 204)" fill-opacity="0.25" points="1003.217,357.355 1002.863,333.551 979.059,333.551 979.413,357.390 " />
<polygon stroke="black" stroke-width="1" fill="rgb(204, 204, 204)" fill-opacity="0.25" points="1832.792,1070.923 1830.393,1070.937 1830.578,1101.503 1832.976,1101.488 " />
<polygon stroke="black" stroke-width="1" fill="rgb(204, 204, 204)" fill-opacity="0.25" points="1003.217,428.464 1003.217,404.660 979.413,404.695 979.413,428.499 " />
<polygon stroke="black" stroke-width="1" fill="rgb(204, 204, 204)" fill-opacity="0.25" points="1736.316,309.833 1736.331,332.222 1759.781,332.206 1759.766,309.817 " />
<polygon stroke="black" stroke-width="1" fill="rgb(204, 204, 204)" fill-opacity="0.25" points="1026.667,357.355 1026.667,333.551 1002.863,333.551 1003.217,357.355 " />
<polygon stroke="black" stroke-width="1" fill="rgb(204, 204, 204)" fill-opacity="0.25" points="1736.331,332.222 1736.347,355.722 1759.797,355.706 1759.781,332.206 " />
<polygon stroke="black" stroke-width="1" fill="rgb(204, 204, 204)" fill-opacity="0.25" points="1026.667,381.159 1026.667,357.355 1003.217,357.355 1003.217,381.159 " />
<polygon stroke="black" stroke-width="1" fill="rgb(204, 204, 204)" fill-opacity="0.25" points="1026.667,404.660 1003.217,404.660 1003.217,428.464 1026.667,428.464 " />
<polygon stroke="black" stroke-width="1" fill="rgb(204, 204, 204)" fill-opacity="0.25" points="1550.262,1365.881 1575.770,1348.707 1576.078,1345.684 1548.958,1363.944 " />
<polygon stroke="black" stroke-width="1" fill="rgb(204, 204, 204)" fill-opacity="0.25" points="1575.738,2044.362 1550.048,2027.462 1548.765,2029.413 1576.078,2047.381 " />
<polygon stroke="black" stroke-width="1" fill="rgb(204, 204, 204)" fill-opacity="0.25" points="1550.048,2027.462 1523.141,2009.762 1521.857,2011.712 1548.765,2029.413 " />
<polygon stroke="black" stroke-width="1" fill="rgb(204, 204, 204)" fill-opacity="0.25" points="1807.422,379.548 1783.618,379.529 1783.618,403.333 1807.422,403.353 " />
<polygon stroke="black" stroke-width="1" fill="rgb(204, 204, 204)" fill-opacity="0.25" points="1523.487,1383.909 1550.262,1365.881 1548.958,1363.944 1522.183,1381.972 " />
<polygon stroke="black" stroke-width="1" fill="rgb(204, 204, 204)" fill-opacity="0.25" points="560.448,1252.413 600.103,1213.974 561.142,1174.841 521.428,1213.337 " />
<polygon stroke="black" stroke-width="1" fill="rgb(204, 204, 204)" fill-opacity="0.25" points="1003.217,404.660 1003.217,381.159 979.413,381.194 979.413,404.695 " />
<polygon stroke="black" stroke-width="1" fill="rgb(204, 204, 204)" fill-opacity="0.25" points="794.291,1174.984 833.310,1214.060 872.385,1175.041 833.393,1135.992 " />
<polygon stroke="black" stroke-width="1" fill="rgb(204, 204, 204)" fill-opacity="0.25" points="1783.618,379.529 1759.814,379.510 1759.814,403.314 1783.618,403.333 " />
<polygon stroke="black" stroke-width="1" fill="rgb(204, 204, 204)" fill-opacity="0.25" points="1074.275,428.464 1050.471,428.464 1050.488,452.268 1074.275,452.268 " />
<polygon stroke="black" stroke-width="1" fill="rgb(204, 204, 204)" fill-opacity="0.25" points="1003.217,428.464 979.413,428.499 979.429,452.303 1003.233,452.268 " />
<polygon stroke="black" stroke-width="1" fill="rgb(204, 204, 204)" fill-opacity="0.25" points="1496.367,1402.170 1495.062,1400.233 1467.932,1418.478 1469.236,1420.415 " />
<polygon stroke="black" stroke-width="1" fill="rgb(204, 204, 204)" fill-opacity="0.25" points="1830.453,1956.075 1832.851,1956.060 1832.667,1925.495 1830.268,1925.509 " />
<polygon stroke="black" stroke-width="1" fill="rgb(204, 204, 204)" fill-opacity="0.25" points="1050.471,428.464 1026.667,428.464 1026.683,452.268 1050.488,452.268 " />
<polygon stroke="black" stroke-width="1" fill="rgb(204, 204, 204)" fill-opacity="0.25" points="1736.347,355.722 1713.958,355.738 1713.975,379.542 1736.364,379.526 " />
<polygon stroke="black" stroke-width="1" fill="rgb(204, 204, 204)" fill-opacity="0.25" points="1003.217,381.159 1003.217,357.355 979.413,357.390 979.413,381.194 " />
<polygon stroke="black" stroke-width="1" fill="rgb(204, 204, 204)" fill-opacity="0.25" points="1830.637,1986.640 1833.036,1986.625 1832.851,1956.060 1830.453,1956.075 " />
<polygon stroke="black" stroke-width="1" fill="rgb(204, 204, 204)" fill-opacity="0.25" points="1074.275,404.660 1050.471,404.660 1050.471,428.464 1074.275,428.464 " />
<polygon stroke="black" stroke-width="1" fill="rgb(204, 204, 204)" fill-opacity="0.25" points="1026.667,428.464 1003.217,428.464 1003.233,452.268 1026.683,452.268 " />
<polygon stroke="black" stroke-width="1" fill="rgb(204, 204, 204)" fill-opacity="0.25" points="1783.570,309.836 1783.585,332.225 1807.389,332.244 1807.374,309.855 " />
<polygon stroke="black" stroke-width="1" fill="rgb(204, 204, 204)" fill-opacity="0.25" points="521.428,1213.337 561.142,1174.841 522.181,1135.707 482.409,1174.262 " />
<polygon stroke="black" stroke-width="1" fill="rgb(204, 204, 204)" fill-opacity="0.25" points="955.609,428.535 955.609,404.730 717.569,405.012 717.569,428.816 " />
<polygon stroke="black" stroke-width="1" fill="rgb(204, 204, 204)" fill-opacity="0.25" points="979.413,404.695 979.413,381.194 955.609,381.230 955.609,404.730 " />
<polygon stroke="black" stroke-width="1" fill="rgb(204, 204, 204)" fill-opacity="0.25" points="979.413,428.499 979.413,404.695 955.609,404.730 955.609,428.535 " />
<polygon stroke="black" stroke-width="1" fill="rgb(204, 204, 204)" fill-opacity="0.25" points="1736.364,379.526 1713.975,379.542 1713.975,403.346 1736.364,403.330 " />
<polygon stroke="black" stroke-width="1" fill="rgb(204, 204, 204)" fill-opacity="0.25" points="979.413,381.194 979.413,357.390 955.609,357.426 955.609,381.230 " />
<polygon stroke="black" stroke-width="1" fill="rgb(204, 204, 204)" fill-opacity="0.25" points="1783.601,355.725 1783.618,379.529 1807.422,379.548 1807.406,355.744 " />
<polygon stroke="black" stroke-width="1" fill="rgb(204, 204, 204)" fill-opacity="0.25" points="1494.566,1993.711 1495.849,1991.760 1468.557,1973.758 1467.274,1975.709 " />
<polygon stroke="black" stroke-width="1" fill="rgb(204, 204, 204)" fill-opacity="0.25" points="1759.781,332.206 1759.797,355.706 1783.601,355.725 1783.585,332.225 " />
<polygon stroke="black" stroke-width="1" fill="rgb(204, 204, 204)" fill-opacity="0.25" points="1759.797,355.706 1759.814,379.510 1783.618,379.529 1783.601,355.725 " />
<polygon stroke="black" stroke-width="1" fill="rgb(204, 204, 204)" fill-opacity="0.25" points="955.609,381.230 955.609,357.426 717.569,357.707 717.569,381.511 " />
<polygon stroke="black" stroke-width="1" fill="rgb(204, 204, 204)" fill-opacity="0.25" points="955.625,452.339 955.609,428.535 717.569,428.816 717.585,452.620 " />
<polygon stroke="black" stroke-width="1" fill="rgb(204, 204, 204)" fill-opacity="0.25" points="1807.406,355.744 1807.422,379.548 2045.462,379.667 2045.446,355.863 " />
<polygon stroke="black" stroke-width="1" fill="rgb(204, 204, 204)" fill-opacity="0.25" points="1467.274,1975.709 1468.557,1973.758 1357.610,1898.964 1356.326,1900.915 " />
<polygon stroke="black" stroke-width="1" fill="rgb(204, 204, 204)" fill-opacity="0.25" points="955.788,690.379 955.625,452.339 717.585,452.620 717.748,690.661 " />
<polygon stroke="black" stroke-width="1" fill="rgb(204, 204, 204)" fill-opacity="0.25" points="1358.128,1622.282 1356.834,1622.289 1356.232,1696.423 1357.526,1696.416 " />
<polygon stroke="black" stroke-width="1" fill="rgb(204, 204, 204)" fill-opacity="0.25" points="955.609,357.426 955.255,333.551 717.215,333.551 717.569,357.707 " />
<polygon stroke="black" stroke-width="1" fill="rgb(204, 204, 204)" fill-opacity="0.25" points="1833.160,1132.053 1830.762,1132.068 1830.269,1269.509 1832.667,1269.495 " />
<polygon stroke="black" stroke-width="1" fill="rgb(204, 204, 204)" fill-opacity="0.25" points="1807.389,332.244 1807.406,355.744 2045.446,355.863 2045.430,332.362 " />
<polygon stroke="black" stroke-width="1" fill="rgb(204, 204, 204)" fill-opacity="0.25" points="1830.023,1666.261 1832.422,1666.247 1832.911,1528.806 1830.513,1528.821 " />
<polygon stroke="black" stroke-width="1" fill="rgb(204, 204, 204)" fill-opacity="0.25" points="1807.374,309.855 1807.389,332.244 2045.430,332.362 2045.414,309.974 " />
<polygon stroke="black" stroke-width="1" fill="rgb(204, 204, 204)" fill-opacity="0.25" points="1783.585,332.225 1783.601,355.725 1807.406,355.744 1807.389,332.244 " />
<polygon stroke="black" stroke-width="1" fill="rgb(204, 204, 204)" fill-opacity="0.25" points="1832.976,1101.488 1830.578,1101.503 1830.762,1132.068 1833.160,1132.053 " />
<polygon stroke="black" stroke-width="1" fill="rgb(204, 204, 204)" fill-opacity="0.25" points="979.413,357.390 979.059,333.551 955.255,333.551 955.609,357.426 " />
<polygon stroke="black" stroke-width="1" fill="rgb(204, 204, 204)" fill-opacity="0.25" points="1759.814,403.314 1736.364,403.330 1736.363,641.371 1759.813,641.355 " />
<polygon stroke="black" stroke-width="1" fill="rgb(204, 204, 204)" fill-opacity="0.25" points="979.429,452.303 955.625,452.339 955.788,690.379 979.592,690.344 " />
<polygon stroke="black" stroke-width="1" fill="rgb(204, 204, 204)" fill-opacity="0.25" points="1807.422,379.548 1807.422,403.353 2045.462,403.471 2045.462,379.667 " />
<polygon stroke="black" stroke-width="1" fill="rgb(204, 204, 204)" fill-opacity="0.25" points="833.393,1135.992 872.385,1175.041 1263.142,784.849 1224.417,746.068 " />
<polygon stroke="black" stroke-width="1" fill="rgb(204, 204, 204)" fill-opacity="0.25" points="1798.766,1928.894 1805.343,1928.894 1805.342,1690.854 1798.766,1690.854 " />
<polygon stroke="black" stroke-width="1" fill="rgb(204, 204, 204)" fill-opacity="0.25" points="1783.618,403.333 1759.814,403.314 1759.813,641.355 1783.618,641.374 " />
<polygon stroke="black" stroke-width="1" fill="rgb(204, 204, 204)" fill-opacity="0.25" points="1074.275,452.268 1050.488,452.268 1050.651,690.308 1074.275,690.308 " />
<polygon stroke="black" stroke-width="1" fill="rgb(204, 204, 204)" fill-opacity="0.25" points="482.409,1174.262 522.181,1135.707 132.452,744.489 92.218,783.505 " />
<polygon stroke="black" stroke-width="1" fill="rgb(204, 204, 204)" fill-opacity="0.25" points="1003.233,452.268 979.429,452.303 979.592,690.344 1003.396,690.308 " />
<polygon stroke="black" stroke-width="1" fill="rgb(204, 204, 204)" fill-opacity="0.25" points="1469.236,1420.415 1467.932,1418.478 1356.133,1491.998 1357.437,1493.935 " />
<polygon stroke="black" stroke-width="1" fill="rgb(204, 204, 204)" fill-opacity="0.25" points="1830.268,1925.509 1832.667,1925.495 1833.157,1788.053 1830.758,1788.068 " />
<polygon stroke="black" stroke-width="1" fill="rgb(204, 204, 204)" fill-opacity="0.25" points="1050.488,452.268 1026.683,452.268 1026.846,690.308 1050.651,690.308 " />
<polygon stroke="black" stroke-width="1" fill="rgb(204, 204, 204)" fill-opacity="0.25" points="1026.683,452.268 1003.233,452.268 1003.396,690.308 1026.846,690.308 " />
<polygon stroke="black" stroke-width="1" fill="rgb(204, 204, 204)" fill-opacity="0.25" points="979.413,428.499 955.609,428.535 955.625,452.339 979.429,452.303 " />
<polygon stroke="black" stroke-width="1" fill="rgb(204, 204, 204)" fill-opacity="0.25" points="1759.814,379.510 1736.364,379.526 1736.364,403.330 1759.814,403.314 " />
<polygon stroke="black" stroke-width="1" fill="rgb(204, 204, 204)" fill-opacity="0.25" points="1798.766,1976.502 1805.342,1976.502 1805.343,1952.698 1798.766,1952.698 " />
<polygon stroke="black" stroke-width="1" fill="rgb(204, 204, 204)" fill-opacity="0.25" points="1357.776,1556.894 1356.482,1556.901 1356.658,1589.595 1357.952,1589.588 " />
<polygon stroke="black" stroke-width="1" fill="rgb(204, 204, 204)" fill-opacity="0.25" points="1830.574,1757.503 1832.972,1757.488 1832.791,1727.377 1830.392,1727.392 " />
<polygon stroke="black" stroke-width="1" fill="rgb(204, 204, 204)" fill-opacity="0.25" points="1798.766,1999.952 1805.342,1999.952 1805.342,1976.502 1798.766,1976.502 " />
<polygon stroke="black" stroke-width="1" fill="rgb(204, 204, 204)" fill-opacity="0.25" points="1805.342,2023.757 1798.766,2023.756 1798.766,2047.381 1805.342,2047.381 " />
<polygon stroke="black" stroke-width="1" fill="rgb(204, 204, 204)" fill-opacity="0.25" points="1798.766,2023.756 1805.342,2023.757 1805.342,1999.952 1798.766,1999.952 " />
<polygon stroke="black" stroke-width="1" fill="rgb(204, 204, 204)" fill-opacity="0.25" points="1833.157,1788.053 1832.972,1757.488 1830.574,1757.503 1830.758,1788.068 " />
<polygon stroke="black" stroke-width="1" fill="rgb(204, 204, 204)" fill-opacity="0.25" points="1357.776,1556.894 1357.603,1524.685 1356.309,1524.692 1356.482,1556.901 " />
<polygon stroke="black" stroke-width="1" fill="rgb(204, 204, 204)" fill-opacity="0.25" points="1357.603,1524.685 1357.437,1493.935 1356.133,1491.998 1356.309,1524.692 " />
<polygon stroke="black" stroke-width="1" fill="rgb(204, 204, 204)" fill-opacity="0.25" points="1357.952,1589.588 1356.658,1589.595 1356.834,1622.289 1358.128,1622.282 " />
<polygon stroke="black" stroke-width="1" fill="rgb(204, 204, 204)" fill-opacity="0.25" points="1830.208,1696.827 1832.606,1696.812 1832.422,1666.247 1830.023,1666.261 " />
<polygon stroke="black" stroke-width="1" fill="rgb(204, 204, 204)" fill-opacity="0.25" points="1798.766,1952.698 1805.343,1952.698 1805.343,1928.894 1798.766,1928.894 " />
<polygon stroke="black" stroke-width="1" fill="rgb(204, 204, 204)" fill-opacity="0.25" points="1830.392,1727.392 1832.791,1727.377 1832.606,1696.812 1830.208,1696.827 " />
<polygon stroke="black" stroke-width="1" fill="rgb(204, 204, 204)" fill-opacity="0.25" points="1807.422,403.353 1783.618,403.333 1783.618,641.374 1807.422,641.393 " />
<polygon stroke="black" stroke-width="1" fill="rgb(204, 204, 204)" fill-opacity="0.25" points="1736.364,403.330 1713.975,403.346 1713.975,641.386 1736.363,641.371 " />
<polygon stroke="black" stroke-width="1" fill="rgb(204, 204, 204)" fill-opacity="0.25" points="1805.342,1429.011 1798.766,1429.011 1798.766,1452.815 1805.342,1452.815 " />
<polygon stroke="black" stroke-width="1" fill="rgb(204, 204, 204)" fill-opacity="0.25" points="1355.804,1803.250 1357.098,1803.243 1356.923,1770.549 1355.629,1770.556 " />
<polygon stroke="black" stroke-width="1" fill="rgb(204, 204, 204)" fill-opacity="0.25" points="1833.218,1360.801 1830.819,1360.815 1831.004,1391.380 1833.402,1391.366 " />
<polygon stroke="black" stroke-width="1" fill="rgb(204, 204, 204)" fill-opacity="0.25" points="1833.033,1330.236 1830.635,1330.250 1830.819,1360.815 1833.218,1360.801 " />
<polygon stroke="black" stroke-width="1" fill="rgb(204, 204, 204)" fill-opacity="0.25" points="1805.342,1333.742 1798.766,1333.742 1798.766,1357.901 1805.342,1357.901 " />
<polygon stroke="black" stroke-width="1" fill="rgb(204, 204, 204)" fill-opacity="0.25" points="1805.342,1357.901 1798.766,1357.901 1798.766,1381.706 1805.342,1381.706 " />
<polygon stroke="black" stroke-width="1" fill="rgb(204, 204, 204)" fill-opacity="0.25" points="1832.851,1300.060 1832.667,1269.495 1830.269,1269.509 1830.453,1300.074 " />
<polygon stroke="black" stroke-width="1" fill="rgb(204, 204, 204)" fill-opacity="0.25" points="1805.342,1381.706 1798.766,1381.706 1798.766,1405.207 1805.342,1405.207 " />
<polygon stroke="black" stroke-width="1" fill="rgb(204, 204, 204)" fill-opacity="0.25" points="1832.851,1300.060 1830.453,1300.074 1830.635,1330.250 1833.033,1330.236 " />
<polygon stroke="black" stroke-width="1" fill="rgb(204, 204, 204)" fill-opacity="0.25" points="1805.342,1405.207 1798.766,1405.207 1798.766,1429.011 1805.342,1429.011 " />
<polygon stroke="black" stroke-width="1" fill="rgb(204, 204, 204)" fill-opacity="0.25" points="1357.610,1898.964 1357.445,1868.214 1356.152,1868.221 1356.326,1900.915 " />
<polygon stroke="black" stroke-width="1" fill="rgb(204, 204, 204)" fill-opacity="0.25" points="1357.445,1868.214 1357.273,1835.936 1355.979,1835.943 1356.152,1868.221 " />
<polygon stroke="black" stroke-width="1" fill="rgb(204, 204, 204)" fill-opacity="0.25" points="1355.979,1835.943 1357.273,1835.936 1357.098,1803.243 1355.804,1803.250 " />
<polygon stroke="black" stroke-width="1" fill="rgb(204, 204, 204)" fill-opacity="0.25" points="1355.629,1770.556 1356.923,1770.549 1357.526,1696.416 1356.232,1696.423 " />
<polygon stroke="black" stroke-width="1" fill="rgb(204, 204, 204)" fill-opacity="0.25" points="1833.402,1391.366 1831.004,1391.380 1830.513,1528.821 1832.911,1528.806 " />
<polygon stroke="black" stroke-width="1" fill="rgb(204, 204, 204)" fill-opacity="0.25" points="1805.342,1452.815 1798.766,1452.815 1798.766,1690.854 1805.342,1690.854 " />
<polygon stroke="black" stroke-width="1" fill="rgb(204, 204, 204)" fill-opacity="0.25" points="955.609,404.730 955.609,381.230 717.569,381.511 717.569,405.012 " />

</svg>
