<?xml version="1.0" standalone="no"?>
<!DOCTYPE svg PUBLIC "-//W3C//DTD SVG 1.1//EN" 
  "http://www.w3.org/Graphics/SVG/1.1/DTD/svg11.dtd">
<svg width="1024" height="1024" viewBox="0 0 1024 1024"
     xmlns="http://www.w3.org/2000/svg" version="1.1">
<desc>vallas.blend, (Blender 3.3.1)</desc>
<polygon stroke="black" stroke-width="1" fill="rgb(204, 204, 204)" fill-opacity="0.25" points="205.389,130.769 304.208,130.769 304.208,81.622 205.389,81.622 " />
<polygon stroke="black" stroke-width="1" fill="rgb(204, 204, 204)" fill-opacity="0.25" points="487.478,609.984 574.915,609.984 574.915,522.546 487.478,522.547 " />
<polygon stroke="black" stroke-width="1" fill="rgb(204, 204, 204)" fill-opacity="0.25" points="705.721,994.708 797.058,994.708 797.058,903.371 705.721,903.371 " />
<polygon stroke="black" stroke-width="1" fill="rgb(204, 204, 204)" fill-opacity="0.25" points="110.653,1001.748 110.653,911.189 20.094,911.189 20.094,1001.748 " />
<polygon stroke="black" stroke-width="1" fill="rgb(204, 204, 204)" fill-opacity="0.25" points="304.208,130.769 205.389,130.769 205.389,330.468 304.208,330.468 " />
<polygon stroke="black" stroke-width="1" fill="rgb(204, 204, 204)" fill-opacity="0.25" points="88.306,497.682 187.125,497.682 187.125,321.371 88.306,321.371 " />
<polygon stroke="black" stroke-width="1" fill="rgb(204, 204, 204)" fill-opacity="0.25" points="887.910,903.371 887.910,994.708 910.951,1005.182 910.951,892.897 " />
<polygon stroke="black" stroke-width="1" fill="rgb(204, 204, 204)" fill-opacity="0.25" points="338.566,326.974 437.385,326.974 437.385,277.827 338.566,277.827 " />
<polygon stroke="black" stroke-width="1" fill="rgb(204, 204, 204)" fill-opacity="0.25" points="618.402,522.546 618.402,609.984 661.889,609.984 661.889,522.546 " />
<polygon stroke="black" stroke-width="1" fill="rgb(204, 204, 204)" fill-opacity="0.25" points="842.484,903.371 842.484,994.708 887.910,994.708 887.910,903.371 " />
<polygon stroke="black" stroke-width="1" fill="rgb(204, 204, 204)" fill-opacity="0.25" points="1000.719,15.663 905.009,15.663 905.009,35.629 1000.719,35.629 " />
<polygon stroke="black" stroke-width="1" fill="rgb(204, 204, 204)" fill-opacity="0.25" points="661.889,522.546 661.889,609.984 683.946,620.011 683.946,512.519 " />
<polygon stroke="black" stroke-width="1" fill="rgb(204, 204, 204)" fill-opacity="0.25" points="338.566,277.827 437.385,277.827 448.717,252.898 327.234,252.898 " />
<polygon stroke="black" stroke-width="1" fill="rgb(204, 204, 204)" fill-opacity="0.25" points="205.389,81.622 304.208,81.622 315.540,56.693 194.056,56.693 " />
<polygon stroke="black" stroke-width="1" fill="rgb(204, 204, 204)" fill-opacity="0.25" points="1000.719,35.629 905.009,35.629 905.009,131.339 1000.719,131.339 " />
<polygon stroke="black" stroke-width="1" fill="rgb(204, 204, 204)" fill-opacity="0.25" points="1020.685,131.339 1020.685,35.629 1000.719,35.629 1000.719,131.339 " />
<polygon stroke="black" stroke-width="1" fill="rgb(204, 204, 204)" fill-opacity="0.25" points="885.042,35.629 885.042,131.339 905.009,131.339 905.009,35.629 " />
<polygon stroke="black" stroke-width="1" fill="rgb(204, 204, 204)" fill-opacity="0.25" points="905.009,151.305 1000.719,151.305 1000.719,131.339 905.009,131.339 " />
<polygon stroke="black" stroke-width="1" fill="rgb(204, 204, 204)" fill-opacity="0.25" points="797.058,903.371 797.058,994.708 842.484,994.708 842.484,903.371 " />
<polygon stroke="black" stroke-width="1" fill="rgb(204, 204, 204)" fill-opacity="0.25" points="574.915,522.546 574.915,609.984 618.402,609.984 618.402,522.546 " />
<polygon stroke="black" stroke-width="1" fill="rgb(204, 204, 204)" fill-opacity="0.25" points="110.653,911.189 110.653,1001.748 272.226,1001.748 272.226,911.189 " />
<polygon stroke="black" stroke-width="1" fill="rgb(204, 204, 204)" fill-opacity="0.25" points="778.269,121.638 733.703,121.638 733.703,302.720 778.269,302.720 " />
<polygon stroke="black" stroke-width="1" fill="rgb(204, 204, 204)" fill-opacity="0.25" points="20.094,728.184 110.653,728.184 110.653,603.691 20.094,603.691 " />
<polygon stroke="black" stroke-width="1" fill="rgb(204, 204, 204)" fill-opacity="0.25" points="778.269,302.720 733.703,302.720 733.703,425.904 778.269,425.904 " />
<polygon stroke="black" stroke-width="1" fill="rgb(204, 204, 204)" fill-opacity="0.25" points="618.402,609.984 574.915,609.984 574.915,786.681 618.402,786.681 " />
<polygon stroke="black" stroke-width="1" fill="rgb(204, 204, 204)" fill-opacity="0.25" points="574.915,609.984 487.478,609.984 487.478,786.681 574.915,786.681 " />
<polygon stroke="black" stroke-width="1" fill="rgb(204, 204, 204)" fill-opacity="0.25" points="867.876,121.638 778.269,121.638 778.269,302.720 867.876,302.720 " />
<polygon stroke="black" stroke-width="1" fill="rgb(204, 204, 204)" fill-opacity="0.25" points="20.094,911.189 110.653,911.189 110.653,728.184 20.094,728.184 " />
<polygon stroke="black" stroke-width="1" fill="rgb(204, 204, 204)" fill-opacity="0.25" points="618.402,906.882 574.915,906.882 574.915,987.471 618.402,987.471 " />
<polygon stroke="black" stroke-width="1" fill="rgb(204, 204, 204)" fill-opacity="0.25" points="304.208,466.315 205.389,466.316 205.389,495.337 304.208,495.337 " />
<polygon stroke="black" stroke-width="1" fill="rgb(204, 204, 204)" fill-opacity="0.25" points="574.915,786.681 487.478,786.681 487.478,906.882 574.915,906.882 " />
<polygon stroke="black" stroke-width="1" fill="rgb(204, 204, 204)" fill-opacity="0.25" points="304.208,330.468 205.389,330.468 205.389,466.316 304.208,466.315 " />
<polygon stroke="black" stroke-width="1" fill="rgb(204, 204, 204)" fill-opacity="0.25" points="618.402,786.681 574.915,786.681 574.915,906.882 618.402,906.882 " />
<polygon stroke="black" stroke-width="1" fill="rgb(204, 204, 204)" fill-opacity="0.25" points="867.876,302.720 778.269,302.720 778.269,425.904 867.876,425.904 " />
<polygon stroke="black" stroke-width="1" fill="rgb(204, 204, 204)" fill-opacity="0.25" points="480.822,115.915 480.822,214.734 579.641,214.734 579.641,115.915 " />
<polygon stroke="black" stroke-width="1" fill="rgb(204, 204, 204)" fill-opacity="0.25" points="579.641,214.734 480.822,214.734 480.822,263.881 579.641,263.881 " />
<polygon stroke="black" stroke-width="1" fill="rgb(204, 204, 204)" fill-opacity="0.25" points="867.876,425.904 778.269,425.904 778.269,508.493 867.876,508.493 " />
<polygon stroke="black" stroke-width="1" fill="rgb(204, 204, 204)" fill-opacity="0.25" points="778.269,425.904 733.703,425.904 733.703,508.493 778.269,508.493 " />
<polygon stroke="black" stroke-width="1" fill="rgb(204, 204, 204)" fill-opacity="0.25" points="20.094,603.691 110.653,603.691 110.653,520.225 20.094,520.225 " />
<polygon stroke="black" stroke-width="1" fill="rgb(204, 204, 204)" fill-opacity="0.25" points="574.915,906.882 487.478,906.882 487.478,987.471 574.915,987.471 " />
<polygon stroke="black" stroke-width="1" fill="rgb(204, 204, 204)" fill-opacity="0.25" points="579.641,292.902 480.822,292.902 474.690,307.948 585.772,307.948 " />
<polygon stroke="black" stroke-width="1" fill="rgb(204, 204, 204)" fill-opacity="0.25" points="618.402,906.882 618.402,987.471 644.081,987.471 644.080,906.882 " />
<polygon stroke="black" stroke-width="1" fill="rgb(204, 204, 204)" fill-opacity="0.25" points="579.641,263.881 480.822,263.881 480.822,292.902 579.641,292.902 " />
<polygon stroke="black" stroke-width="1" fill="rgb(204, 204, 204)" fill-opacity="0.25" points="733.703,508.493 733.703,425.904 707.387,425.904 707.387,508.493 " />
<polygon stroke="black" stroke-width="1" fill="rgb(204, 204, 204)" fill-opacity="0.25" points="897.785,533.766 1000.166,533.766 1000.166,518.160 897.785,518.160 " />
<polygon stroke="black" stroke-width="1" fill="rgb(204, 204, 204)" fill-opacity="0.25" points="644.080,906.882 644.081,987.471 657.558,992.471 657.558,901.882 " />
<polygon stroke="black" stroke-width="1" fill="rgb(204, 204, 204)" fill-opacity="0.25" points="707.387,508.493 707.387,425.904 693.575,420.780 693.575,513.617 " />
<polygon stroke="black" stroke-width="1" fill="rgb(204, 204, 204)" fill-opacity="0.25" points="304.208,495.337 205.389,495.337 199.258,510.382 310.339,510.382 " />
<polygon stroke="black" stroke-width="1" fill="rgb(204, 204, 204)" fill-opacity="0.25" points="1000.166,518.160 1000.166,407.078 897.785,407.078 897.785,518.160 " />
<polygon stroke="black" stroke-width="1" fill="rgb(204, 204, 204)" fill-opacity="0.25" points="1015.772,518.160 1015.772,407.078 1000.166,407.078 1000.166,518.160 " />
<polygon stroke="black" stroke-width="1" fill="rgb(204, 204, 204)" fill-opacity="0.25" points="882.179,407.078 882.179,518.160 897.785,518.160 897.785,407.078 " />
<polygon stroke="black" stroke-width="1" fill="rgb(204, 204, 204)" fill-opacity="0.25" points="1000.166,391.472 897.785,391.472 897.785,407.078 1000.166,407.078 " />
<polygon stroke="black" stroke-width="1" fill="rgb(204, 204, 204)" fill-opacity="0.25" points="88.306,321.371 187.125,321.371 187.125,195.431 88.306,195.431 " />
<polygon stroke="black" stroke-width="1" fill="rgb(204, 204, 204)" fill-opacity="0.25" points="797.058,740.410 842.484,740.410 842.484,624.006 797.058,624.006 " />
<polygon stroke="black" stroke-width="1" fill="rgb(204, 204, 204)" fill-opacity="0.25" points="437.385,326.974 338.566,326.974 338.566,503.285 437.385,503.285 " />
<polygon stroke="black" stroke-width="1" fill="rgb(204, 204, 204)" fill-opacity="0.25" points="797.058,903.371 842.484,903.371 842.484,740.410 797.058,740.410 " />
<polygon stroke="black" stroke-width="1" fill="rgb(204, 204, 204)" fill-opacity="0.25" points="705.721,903.371 797.058,903.371 797.058,740.410 705.721,740.410 " />
<polygon stroke="black" stroke-width="1" fill="rgb(204, 204, 204)" fill-opacity="0.25" points="39.158,497.682 88.306,497.682 88.306,321.371 39.158,321.371 " />
<polygon stroke="black" stroke-width="1" fill="rgb(204, 204, 204)" fill-opacity="0.25" points="39.158,195.431 88.306,195.431 88.306,122.684 39.158,122.684 " />
<polygon stroke="black" stroke-width="1" fill="rgb(204, 204, 204)" fill-opacity="0.25" points="437.385,629.226 338.566,629.226 338.566,654.405 437.385,654.405 " />
<polygon stroke="black" stroke-width="1" fill="rgb(204, 204, 204)" fill-opacity="0.25" points="437.385,503.285 338.566,503.285 338.566,629.226 437.385,629.226 " />
<polygon stroke="black" stroke-width="1" fill="rgb(204, 204, 204)" fill-opacity="0.25" points="39.158,321.371 88.306,321.371 88.306,195.431 39.158,195.431 " />
<polygon stroke="black" stroke-width="1" fill="rgb(204, 204, 204)" fill-opacity="0.25" points="705.721,740.410 797.058,740.410 797.058,624.006 705.721,624.006 " />
<polygon stroke="black" stroke-width="1" fill="rgb(204, 204, 204)" fill-opacity="0.25" points="272.226,911.189 272.226,1001.748 387.639,1001.748 387.639,911.189 " />
<polygon stroke="black" stroke-width="1" fill="rgb(204, 204, 204)" fill-opacity="0.25" points="592.075,121.672 592.075,220.492 690.894,220.492 690.894,121.672 " />
<polygon stroke="black" stroke-width="1" fill="rgb(204, 204, 204)" fill-opacity="0.25" points="690.894,220.492 592.075,220.492 592.075,269.639 690.894,269.639 " />
<polygon stroke="black" stroke-width="1" fill="rgb(204, 204, 204)" fill-opacity="0.25" points="705.721,624.006 797.058,624.006 797.058,556.767 705.721,556.767 " />
<polygon stroke="black" stroke-width="1" fill="rgb(204, 204, 204)" fill-opacity="0.25" points="387.639,911.189 387.639,1001.748 454.305,1001.748 454.305,911.189 " />
<polygon stroke="black" stroke-width="1" fill="rgb(204, 204, 204)" fill-opacity="0.25" points="797.058,624.006 842.484,624.006 842.484,556.767 797.058,556.767 " />
<polygon stroke="black" stroke-width="1" fill="rgb(204, 204, 204)" fill-opacity="0.25" points="88.306,195.431 187.125,195.431 187.125,122.684 88.306,122.684 " />
<polygon stroke="black" stroke-width="1" fill="rgb(204, 204, 204)" fill-opacity="0.25" points="690.894,294.819 592.075,294.819 586.354,307.948 696.616,307.948 " />
<polygon stroke="black" stroke-width="1" fill="rgb(204, 204, 204)" fill-opacity="0.25" points="690.894,269.639 592.075,269.639 592.075,294.819 690.894,294.819 " />
<polygon stroke="black" stroke-width="1" fill="rgb(204, 204, 204)" fill-opacity="0.25" points="39.158,195.431 39.158,122.684 13.979,122.684 13.979,195.431 " />
<polygon stroke="black" stroke-width="1" fill="rgb(204, 204, 204)" fill-opacity="0.25" points="842.484,556.767 842.484,624.006 865.757,624.006 865.757,556.767 " />
<polygon stroke="black" stroke-width="1" fill="rgb(204, 204, 204)" fill-opacity="0.25" points="911.872,324.220 993.043,324.220 993.043,311.989 911.872,311.989 " />
<polygon stroke="black" stroke-width="1" fill="rgb(204, 204, 204)" fill-opacity="0.25" points="13.979,195.431 13.979,122.684 0.291,118.472 0.291,199.643 " />
<polygon stroke="black" stroke-width="1" fill="rgb(204, 204, 204)" fill-opacity="0.25" points="865.757,556.767 865.757,624.006 878.409,627.899 878.409,552.874 " />
<polygon stroke="black" stroke-width="1" fill="rgb(204, 204, 204)" fill-opacity="0.25" points="437.385,654.405 338.566,654.405 332.845,667.534 443.107,667.534 " />
<polygon stroke="black" stroke-width="1" fill="rgb(204, 204, 204)" fill-opacity="0.25" points="993.043,311.989 993.043,201.727 911.872,201.727 911.872,311.989 " />
<polygon stroke="black" stroke-width="1" fill="rgb(204, 204, 204)" fill-opacity="0.25" points="1005.274,311.989 1005.274,201.727 993.043,201.727 993.043,311.989 " />
<polygon stroke="black" stroke-width="1" fill="rgb(204, 204, 204)" fill-opacity="0.25" points="899.641,201.727 899.641,311.989 911.872,311.989 911.872,201.727 " />
<polygon stroke="black" stroke-width="1" fill="rgb(204, 204, 204)" fill-opacity="0.25" points="993.043,189.495 911.872,189.495 911.872,201.727 993.043,201.727 " />

</svg>
